<svg xmlns="http://www.w3.org/2000/svg" version="1.1" xmlns:xlink="http://www.w3.org/1999/xlink" width="1536" height="1024"><svg xmlns="http://www.w3.org/2000/svg" version="1.1" xmlns:xlink="http://www.w3.org/1999/xlink" width="1536" height="1024"><svg baseProfile="full" height="1024" version="1.1" width="1536" xmlns="http://www.w3.org/2000/svg" xmlns:ev="http://www.w3.org/2001/xml-events" xmlns:xlink="http://www.w3.org/1999/xlink"><defs></defs><path d="M 1181.0,784.5 L 1180.0,784.5 L 1179.0,784.5 L 1178.0,784.5 L 1177.0,784.5 L 1176.0,784.5 L 1175.0,784.5 L 1174.0,784.5 L 1173.0,784.5 L 1172.0,784.5 L 1171.0,784.5 L 1170.0,784.5 L 1169.0,784.5 L 1168.0,784.5 L 1167.0,784.5 L 1166.0,784.5 L 1165.0,784.5 L 1164.0,784.5 L 1163.0,784.5 L 1162.0,784.5 L 1161.0,784.5 L 1160.0,784.5 L 1159.0,784.5 L 1158.0,784.5 L 1157.0,784.5 L 1156.0,784.5 L 1155.0,784.5 L 1154.0,784.5 L 1153.0,784.5 L 1152.0,784.5 L 1151.0,784.5 L 1150.0,784.5 L 1149.0,784.5 L 1148.0,784.5 L 1147.0,784.5 L 1146.0,784.5 L 1145.0,784.5 L 1144.0,784.5 L 1143.0,784.5 L 1142.0,784.5 L 1141.0,784.5 L 1140.0,784.5 L 1139.0,784.5 L 1138.0,784.5 L 1137.0,784.5 L 1136.0,784.5 L 1135.0,784.5 L 1134.0,784.5 L 1133.0,784.5 L 1132.0,784.5 L 1131.0,784.5 L 1130.0,784.5 L 1129.0,784.5 L 1128.0,784.5 L 1127.0,784.5 L 1126.0,784.5 L 1125.0,784.5 L 1124.0,784.5 L 1123.0,784.5 L 1122.0,784.5 L 1121.0,784.5 L 1120.0,784.5 L 1119.0,784.5 L 1118.0,784.5 L 1117.0,784.5 L 1116.0,784.5 L 1115.0,784.5 L 1114.0,784.5 L 1113.0,784.5 L 1112.0,784.5 L 1111.0,784.5 L 1110.0,784.5 L 1109.0,784.5 L 1108.0,784.5 L 1107.0,784.5 L 1106.0,784.5 L 1105.0,784.5 L 1104.0,784.5 L 1103.0,784.5 L 1102.0,784.5 L 1101.0,784.5 L 1100.0,784.5 L 1099.0,784.5 L 1098.0,784.5 L 1097.0,784.5 L 1096.0,784.5 L 1095.0,784.5 L 1094.0,784.5 L 1093.0,784.5 L 1092.0,784.5 L 1091.0,784.5 L 1090.0,784.5 L 1089.0,784.5 L 1088.0,784.5 L 1087.0,784.5 L 1086.0,784.5 L 1085.0,784.5 L 1084.0,784.5 L 1083.0,784.5 L 1082.0,784.5 L 1081.0,784.5 L 1080.0,784.5 L 1079.0,784.5 L 1078.0,784.5 L 1077.0,784.5 L 1076.0,784.5 L 1075.0,784.5 L 1074.0,784.5 L 1073.0,784.5 L 1072.0,784.5 L 1071.0,784.5 L 1070.0,784.5 L 1069.0,784.5 L 1068.0,784.5 L 1067.0,784.5 L 1066.0,784.5 L 1065.0,784.5 L 1064.0,784.5 L 1063.0,784.5 L 1062.0,784.5 L 1061.0,784.5 L 1060.0,784.5 L 1059.0,784.5 L 1058.0,784.5 L 1057.0,784.5 L 1056.0,784.5 L 1055.0,784.5 L 1054.0,784.5 L 1053.0,784.5 L 1052.0,784.5 L 1051.0,784.5 L 1050.0,784.5 L 1049.0,784.5 L 1048.0,784.5 L 1047.0,784.5 L 1046.0,784.5 L 1045.0,784.5 L 1044.0,784.5 L 1043.0,784.5 L 1042.0,784.5 L 1041.5,784.0 L 1041.0,783.5 L 1040.0,783.5 L 1039.0,783.5 L 1038.5,783.0 L 1038.5,782.0 L 1038.5,781.0 L 1038.0,780.5 L 1037.5,780.0 L 1037.5,779.0 L 1037.5,778.0 L 1037.5,777.0 L 1037.5,776.0 L 1037.5,775.0 L 1037.5,774.0 L 1037.5,773.0 L 1037.5,772.0 L 1037.5,771.0 L 1037.5,770.0 L 1037.5,769.0 L 1037.5,768.0 L 1037.5,767.0 L 1037.5,766.0 L 1037.5,765.0 L 1037.5,764.0 L 1037.5,763.0 L 1037.5,762.0 L 1037.5,761.0 L 1037.5,760.0 L 1037.0,759.5 L 1036.5,759.0 L 1036.5,758.0 L 1036.5,757.0 L 1036.5,756.0 L 1036.5,755.0 L 1036.5,754.0 L 1036.5,753.0 L 1036.5,752.0 L 1036.5,751.0 L 1036.5,750.0 L 1036.5,749.0 L 1036.0,748.5 L 1035.5,748.0 L 1035.5,747.0 L 1035.5,746.0 L 1035.5,745.0 L 1035.5,744.0 L 1035.5,743.0 L 1035.5,742.0 L 1035.5,741.0 L 1035.5,740.0 L 1035.0,739.5 L 1034.5,739.0 L 1034.5,738.0 L 1034.5,737.0 L 1034.5,736.0 L 1034.5,735.0 L 1034.5,734.0 L 1034.5,733.0 L 1034.0,732.5 L 1033.5,732.0 L 1033.5,731.0 L 1033.5,730.0 L 1033.5,729.0 L 1033.5,728.0 L 1033.5,727.0 L 1033.5,726.0 L 1033.0,725.5 L 1032.5,725.0 L 1032.5,724.0 L 1032.5,723.0 L 1032.5,722.0 L 1032.5,721.0 L 1032.0,720.5 L 1031.5,720.0 L 1031.5,719.0 L 1031.5,718.0 L 1031.5,717.0 L 1031.5,716.0 L 1031.0,715.5 L 1030.5,715.0 L 1030.5,714.0 L 1030.5,713.0 L 1030.5,712.0 L 1030.0,711.5 L 1029.5,711.0 L 1029.5,710.0 L 1029.5,709.0 L 1029.5,708.0 L 1029.0,707.5 L 1028.5,707.0 L 1028.5,706.0 L 1028.5,705.0 L 1028.5,704.0 L 1028.0,703.5 L 1027.5,703.0 L 1027.5,702.0 L 1027.5,701.0 L 1027.0,700.5 L 1026.5,700.0 L 1026.5,699.0 L 1026.5,698.0 L 1026.5,697.0 L 1026.0,696.5 L 1025.5,696.0 L 1025.5,695.0 L 1025.5,694.0 L 1025.0,693.5 L 1024.5,693.0 L 1024.5,692.0 L 1024.5,691.0 L 1024.0,690.5 L 1023.5,690.0 L 1023.5,689.0 L 1023.5,688.0 L 1023.0,687.5 L 1022.5,687.0 L 1022.5,686.0 L 1022.5,685.0 L 1022.0,684.5 L 1021.5,684.0 L 1021.5,683.0 L 1021.0,682.5 L 1020.5,682.0 L 1020.5,681.0 L 1020.5,680.0 L 1020.5,679.0 L 1020.0,678.5 L 1019.5,678.0 L 1019.5,677.0 L 1019.0,676.5 L 1018.5,676.0 L 1018.5,675.0 L 1018.0,674.5 L 1017.5,674.0 L 1017.5,673.0 L 1017.0,672.5 L 1016.5,672.0 L 1016.5,671.0 L 1016.5,670.0 L 1016.0,669.5 L 1015.5,669.0 L 1015.5,668.0 L 1015.5,667.0 L 1015.0,666.5 L 1014.5,666.0 L 1014.5,665.0 L 1014.0,664.5 L 1013.5,664.0 L 1013.5,663.0 L 1013.0,662.5 L 1012.5,662.0 L 1012.5,661.0 L 1012.0,660.5 L 1011.5,660.0 L 1011.5,659.0 L 1011.0,658.5 L 1010.5,658.0 L 1010.5,657.0 L 1010.0,656.5 L 1009.5,656.0 L 1009.5,655.0 L 1009.0,654.5 L 1008.5,654.0 L 1008.0,653.5 L 1007.5,653.0 L 1007.5,652.0 L 1007.0,651.5 L 1006.5,651.0 L 1006.5,650.0 L 1006.0,649.5 L 1005.5,649.0 L 1005.0,648.5 L 1004.5,648.0 L 1004.5,647.0 L 1004.0,646.5 L 1003.5,646.0 L 1003.5,645.0 L 1003.0,644.5 L 1002.5,644.0 L 1002.0,643.5 L 1001.5,643.0 L 1001.5,642.0 L 1001.5,641.0 L 1001.0,640.5 L 1000.0,640.5 L 999.5,640.0 L 999.5,639.0 L 999.0,638.5 L 998.5,638.0 L 998.0,637.5 L 997.5,637.0 L 997.5,636.0 L 997.0,635.5 L 996.5,635.0 L 996.0,634.5 L 995.5,634.0 L 995.5,633.0 L 995.0,632.5 L 994.5,632.0 L 994.0,631.5 L 993.5,631.0 L 993.0,630.5 L 992.5,630.0 L 992.0,629.5 L 991.5,629.0 L 991.5,628.0 L 991.0,627.5 L 990.5,627.0 L 990.0,626.5 L 989.5,626.0 L 989.0,625.5 L 988.5,625.0 L 988.0,624.5 L 987.5,624.0 L 987.5,623.0 L 987.0,622.5 L 986.5,622.0 L 986.0,621.5 L 985.5,621.0 L 985.0,620.5 L 984.5,620.0 L 984.0,619.5 L 983.5,619.0 L 983.0,618.5 L 982.5,618.0 L 982.0,617.5 L 981.5,617.0 L 981.0,616.5 L 980.5,616.0 L 980.0,615.5 L 979.5,615.0 L 979.0,614.5 L 978.5,614.0 L 978.0,613.5 L 977.5,613.0 L 977.0,612.5 L 976.5,612.0 L 976.0,611.5 L 975.5,611.0 L 975.0,610.5 L 974.5,610.0 L 974.0,609.5 L 973.5,609.0 L 973.0,608.5 L 972.5,608.0 L 972.0,607.5 L 971.5,607.0 L 971.0,606.5 L 970.5,606.0 L 970.0,605.5 L 969.0,605.5 L 968.5,605.0 L 968.0,604.5 L 967.5,604.0 L 967.0,603.5 L 966.5,603.0 L 966.0,602.5 L 965.5,602.0 L 965.0,601.5 L 964.0,601.5 L 963.5,601.0 L 963.0,600.5 L 962.5,600.0 L 962.0,599.5 L 961.5,599.0 L 961.0,598.5 L 960.5,598.0 L 960.0,597.5 L 959.0,597.5 L 958.0,597.5 L 957.5,597.0 L 957.0,596.5 L 956.5,596.0 L 956.0,595.5 L 955.0,595.5 L 954.5,595.0 L 954.5,594.0 L 954.0,593.5 L 953.0,593.5 L 952.0,593.5 L 951.5,593.0 L 951.0,592.5 L 950.5,592.0 L 950.0,591.5 L 949.5,591.0 L 949.0,590.5 L 948.0,590.5 L 947.5,590.0 L 947.0,589.5 L 946.0,589.5 L 945.5,589.0 L 945.0,588.5 L 944.0,588.5 L 943.5,588.0 L 943.0,587.5 L 942.0,587.5 L 941.5,587.0 L 941.0,586.5 L 940.0,586.5 L 939.5,586.0 L 939.0,585.5 L 938.5,585.0 L 938.0,584.5 L 937.0,584.5 L 936.0,584.5 L 935.5,584.0 L 935.0,583.5 L 934.5,583.0 L 934.0,582.5 L 933.0,582.5 L 932.0,582.5 L 931.0,582.5 L 930.5,582.0 L 930.0,581.5 L 929.0,581.5 L 928.0,581.5 L 927.5,581.0 L 927.0,580.5 L 926.0,580.5 L 925.5,580.0 L 925.0,579.5 L 924.0,579.5 L 923.0,579.5 L 922.0,579.5 L 921.5,579.0 L 921.0,578.5 L 920.0,578.5 L 919.0,578.5 L 918.5,578.0 L 918.0,577.5 L 917.0,577.5 L 916.0,577.5 L 915.5,577.0 L 915.0,576.5 L 914.5,577.0 L 914.0,577.5 L 913.5,577.0 L 913.0,576.5 L 912.5,576.0 L 912.0,575.5 L 911.5,576.0 L 911.0,576.5 L 910.0,576.5 L 909.5,576.0 L 909.0,575.5 L 908.5,575.0 L 908.0,574.5 L 907.5,575.0 L 907.0,575.5 L 906.5,575.0 L 906.0,574.5 L 905.0,574.5 L 904.0,574.5 L 903.0,574.5 L 902.5,574.0 L 902.0,573.5 L 901.0,573.5 L 900.0,573.5 L 899.0,573.5 L 898.0,573.5 L 897.0,573.5 L 896.0,573.5 L 895.0,573.5 L 894.0,573.5 L 893.5,573.0 L 893.0,572.5 L 892.0,572.5 L 891.0,572.5 L 890.0,572.5 L 889.0,572.5 L 888.0,572.5 L 887.0,572.5 L 886.0,572.5 L 885.0,572.5 L 884.0,572.5 L 883.0,572.5 L 882.0,572.5 L 881.0,572.5 L 880.0,572.5 L 879.5,573.0 L 879.0,573.5 L 878.0,573.5 L 877.0,573.5 L 876.0,573.5 L 875.0,573.5 L 874.0,573.5 L 873.0,573.5 L 872.0,573.5 L 871.5,574.0 L 871.0,574.5 L 870.5,575.0 L 870.0,575.5 L 869.5,575.0 L 869.0,574.5 L 868.0,574.5 L 867.0,574.5 L 866.5,575.0 L 866.0,575.5 L 865.0,575.5 L 864.0,575.5 L 863.0,575.5 L 862.5,576.0 L 862.0,576.5 L 861.0,576.5 L 860.0,576.5 L 859.0,576.5 L 858.5,577.0 L 858.0,577.5 L 857.0,577.5 L 856.0,577.5 L 855.5,578.0 L 855.0,578.5 L 854.0,578.5 L 853.0,578.5 L 852.5,579.0 L 852.0,579.5 L 851.0,579.5 L 850.5,580.0 L 850.0,580.5 L 849.0,580.5 L 848.0,580.5 L 847.5,581.0 L 847.0,581.5 L 846.5,582.0 L 846.0,582.5 L 845.0,582.5 L 844.0,582.5 L 843.0,582.5 L 842.5,583.0 L 842.0,583.5 L 841.5,584.0 L 841.0,584.5 L 840.0,584.5 L 839.5,585.0 L 839.0,585.5 L 838.0,585.5 L 837.5,586.0 L 837.0,586.5 L 836.0,586.5 L 835.5,587.0 L 835.0,587.5 L 834.0,587.5 L 833.5,588.0 L 833.0,588.5 L 832.0,588.5 L 831.5,589.0 L 831.0,589.5 L 830.0,589.5 L 829.5,590.0 L 829.0,590.5 L 828.5,591.0 L 828.0,591.5 L 827.0,591.5 L 826.5,592.0 L 826.5,593.0 L 826.0,593.5 L 825.0,593.5 L 824.5,594.0 L 824.0,594.5 L 823.0,594.5 L 822.5,595.0 L 822.5,596.0 L 822.0,596.5 L 821.0,596.5 L 820.5,597.0 L 820.0,597.5 L 819.0,597.5 L 818.5,598.0 L 818.0,598.5 L 817.5,599.0 L 817.0,599.5 L 816.5,600.0 L 816.0,600.5 L 815.0,600.5 L 814.5,601.0 L 814.0,601.5 L 813.5,602.0 L 813.0,602.5 L 812.5,603.0 L 812.0,603.5 L 811.5,604.0 L 811.0,604.5 L 810.5,605.0 L 810.0,605.5 L 809.0,605.5 L 808.5,606.0 L 808.0,606.5 L 807.5,607.0 L 807.0,607.5 L 806.5,608.0 L 806.0,608.5 L 805.5,609.0 L 805.0,609.5 L 804.5,610.0 L 804.0,610.5 L 803.5,611.0 L 803.0,611.5 L 802.5,612.0 L 802.0,612.5 L 801.5,613.0 L 801.0,613.5 L 800.5,614.0 L 800.0,614.5 L 799.5,615.0 L 799.0,615.5 L 798.5,616.0 L 798.0,616.5 L 797.5,617.0 L 797.0,617.5 L 796.5,618.0 L 796.0,618.5 L 795.5,619.0 L 795.5,620.0 L 795.5,621.0 L 795.0,621.5 L 794.0,621.5 L 793.5,622.0 L 793.5,623.0 L 793.0,623.5 L 792.0,623.5 L 791.5,624.0 L 791.0,624.5 L 790.5,625.0 L 790.0,625.5 L 789.5,626.0 L 789.5,627.0 L 789.0,627.5 L 788.5,628.0 L 788.0,628.5 L 787.5,629.0 L 787.0,629.5 L 786.5,630.0 L 786.5,631.0 L 786.0,631.5 L 785.5,632.0 L 785.5,633.0 L 785.0,633.5 L 784.0,633.5 L 783.5,634.0 L 783.5,635.0 L 783.0,635.5 L 782.5,636.0 L 782.0,636.5 L 781.5,637.0 L 781.0,637.5 L 780.5,638.0 L 780.5,639.0 L 780.0,639.5 L 779.5,640.0 L 779.0,640.5 L 778.5,641.0 L 778.5,642.0 L 778.0,642.5 L 777.5,643.0 L 777.0,643.5 L 776.5,644.0 L 776.5,645.0 L 776.0,645.5 L 775.5,646.0 L 775.5,647.0 L 775.0,647.5 L 774.5,648.0 L 774.5,649.0 L 774.0,649.5 L 773.5,650.0 L 773.0,650.5 L 772.5,651.0 L 772.5,652.0 L 772.0,652.5 L 771.5,653.0 L 771.0,653.5 L 770.5,654.0 L 770.5,655.0 L 770.0,655.5 L 769.5,656.0 L 769.5,657.0 L 769.5,658.0 L 769.0,658.5 L 768.5,659.0 L 768.0,659.5 L 767.5,660.0 L 767.5,661.0 L 767.0,661.5 L 766.5,662.0 L 766.5,663.0 L 766.0,663.5 L 765.5,664.0 L 765.5,665.0 L 765.5,666.0 L 765.0,666.5 L 764.5,667.0 L 764.5,668.0 L 764.0,668.5 L 763.5,669.0 L 763.0,669.5 L 762.5,670.0 L 762.5,671.0 L 762.0,671.5 L 761.5,672.0 L 761.5,673.0 L 761.5,674.0 L 761.5,675.0 L 761.0,675.5 L 760.5,676.0 L 760.5,677.0 L 760.0,677.5 L 759.5,678.0 L 759.5,679.0 L 759.0,679.5 L 758.5,680.0 L 758.5,681.0 L 758.0,681.5 L 757.5,682.0 L 757.5,683.0 L 757.0,683.5 L 756.5,684.0 L 756.5,685.0 L 756.5,686.0 L 756.0,686.5 L 755.5,687.0 L 755.0,687.5 L 754.5,688.0 L 755.0,688.5 L 755.5,689.0 L 755.0,689.5 L 754.5,690.0 L 754.5,691.0 L 754.0,691.5 L 753.5,692.0 L 753.5,693.0 L 753.5,694.0 L 753.0,694.5 L 752.5,695.0 L 752.5,696.0 L 752.5,697.0 L 752.0,697.5 L 751.5,698.0 L 751.5,699.0 L 751.5,700.0 L 751.0,700.5 L 750.5,701.0 L 750.5,702.0 L 750.5,703.0 L 750.0,703.5 L 749.5,704.0 L 749.5,705.0 L 749.5,706.0 L 749.5,707.0 L 749.5,708.0 L 749.0,708.5 L 748.5,709.0 L 748.0,709.5 L 747.5,710.0 L 748.0,710.5 L 748.5,711.0 L 748.5,712.0 L 748.0,712.5 L 747.5,713.0 L 747.5,714.0 L 747.5,715.0 L 747.0,715.5 L 746.5,716.0 L 746.5,717.0 L 746.5,718.0 L 746.5,719.0 L 746.0,719.5 L 745.5,720.0 L 745.0,720.5 L 744.5,721.0 L 744.5,722.0 L 745.0,722.5 L 745.5,723.0 L 745.0,723.5 L 744.5,724.0 L 744.0,724.5 L 743.5,725.0 L 743.5,726.0 L 744.0,726.5 L 744.5,727.0 L 744.0,727.5 L 743.5,728.0 L 743.5,729.0 L 743.5,730.0 L 743.5,731.0 L 743.5,732.0 L 743.0,732.5 L 742.5,733.0 L 742.5,734.0 L 742.5,735.0 L 742.5,736.0 L 742.5,737.0 L 742.0,737.5 L 741.5,738.0 L 741.5,739.0 L 741.5,740.0 L 741.5,741.0 L 741.5,742.0 L 741.5,743.0 L 741.0,743.5 L 740.5,744.0 L 740.5,745.0 L 740.5,746.0 L 740.5,747.0 L 740.5,748.0 L 740.5,749.0 L 740.0,749.5 L 739.5,750.0 L 739.5,751.0 L 739.5,752.0 L 739.5,753.0 L 739.5,754.0 L 739.5,755.0 L 739.5,756.0 L 739.0,756.5 L 738.5,757.0 L 738.5,758.0 L 738.5,759.0 L 738.5,760.0 L 738.5,761.0 L 738.5,762.0 L 738.5,763.0 L 738.5,764.0 L 738.5,765.0 L 738.0,765.5 L 737.5,766.0 L 737.5,767.0 L 737.5,768.0 L 737.5,769.0 L 737.5,770.0 L 737.5,771.0 L 737.5,772.0 L 737.5,773.0 L 737.5,774.0 L 737.5,775.0 L 737.5,776.0 L 737.5,777.0 L 737.0,777.5 L 736.5,778.0 L 736.5,779.0 L 736.5,780.0 L 736.5,781.0 L 736.0,781.5 L 735.5,782.0 L 735.0,782.5 L 734.5,783.0 L 734.0,783.5 L 733.5,784.0 L 733.0,784.5 L 732.0,784.5 L 731.0,784.5 L 730.0,784.5 L 729.0,784.5 L 728.0,784.5 L 727.0,784.5 L 726.0,784.5 L 725.0,784.5 L 724.0,784.5 L 723.0,784.5 L 722.0,784.5 L 721.0,784.5 L 720.0,784.5 L 719.0,784.5 L 718.0,784.5 L 717.0,784.5 L 716.0,784.5 L 715.0,784.5 L 714.0,784.5 L 713.0,784.5 L 712.0,784.5 L 711.0,784.5 L 710.0,784.5 L 709.0,784.5 L 708.0,784.5 L 707.0,784.5 L 706.0,784.5 L 705.0,784.5 L 704.0,784.5 L 703.0,784.5 L 702.0,784.5 L 701.0,784.5 L 700.0,784.5 L 699.0,784.5 L 698.0,784.5 L 697.0,784.5 L 696.0,784.5 L 695.0,784.5 L 694.0,784.5 L 693.0,784.5 L 692.0,784.5 L 691.0,784.5 L 690.0,784.5 L 689.0,784.5 L 688.0,784.5 L 687.0,784.5 L 686.0,784.5 L 685.0,784.5 L 684.0,784.5 L 683.0,784.5 L 682.0,784.5 L 681.0,784.5 L 680.0,784.5 L 679.0,784.5 L 678.0,784.5 L 677.0,784.5 L 676.0,784.5 L 675.0,784.5 L 674.0,784.5 L 673.0,784.5 L 672.0,784.5 L 671.0,784.5 L 670.0,784.5 L 669.0,784.5 L 668.0,784.5 L 667.0,784.5 L 666.0,784.5 L 665.0,784.5 L 664.0,784.5 L 663.0,784.5 L 662.0,784.5 L 661.0,784.5 L 660.0,784.5 L 659.0,784.5 L 658.0,784.5 L 657.0,784.5 L 656.0,784.5 L 655.0,784.5 L 654.0,784.5 L 653.0,784.5 L 652.0,784.5 L 651.0,784.5 L 650.0,784.5 L 649.0,784.5 L 648.0,784.5 L 647.0,784.5 L 646.0,784.5 L 645.0,784.5 L 644.0,784.5 L 643.0,784.5 L 642.0,784.5 L 641.0,784.5 L 640.0,784.5 L 639.0,784.5 L 638.0,784.5 L 637.0,784.5 L 636.0,784.5 L 635.0,784.5 L 634.0,784.5 L 633.0,784.5 L 632.0,784.5 L 631.0,784.5 L 630.0,784.5 L 629.0,784.5 L 628.0,784.5 L 627.0,784.5 L 626.0,784.5 L 625.0,784.5 L 624.0,784.5 L 623.0,784.5 L 622.0,784.5 L 621.0,784.5 L 620.0,784.5 L 619.0,784.5 L 618.0,784.5 L 617.0,784.5 L 616.0,784.5 L 615.0,784.5 L 614.0,784.5 L 613.0,784.5 L 612.0,784.5 L 611.0,784.5 L 610.0,784.5 L 609.0,784.5 L 608.0,784.5 L 607.0,784.5 L 606.0,784.5 L 605.0,784.5 L 604.0,784.5 L 603.0,784.5 L 602.0,784.5 L 601.0,784.5 L 600.0,784.5 L 599.0,784.5 L 598.0,784.5 L 597.0,784.5 L 596.0,784.5 L 595.0,784.5 L 594.0,784.5 L 593.0,784.5 L 592.5,784.0 L 592.0,783.5 L 591.5,783.0 L 591.0,782.5 L 590.5,782.0 L 590.5,781.0 L 590.0,780.5 L 589.5,780.0 L 589.5,779.0 L 589.5,778.0 L 589.5,777.0 L 589.5,776.0 L 589.5,775.0 L 589.5,774.0 L 589.5,773.0 L 589.5,772.0 L 589.5,771.0 L 589.5,770.0 L 589.5,769.0 L 589.5,768.0 L 589.5,767.0 L 589.5,766.0 L 589.5,765.0 L 589.0,764.5 L 588.5,764.0 L 588.5,763.0 L 588.5,762.0 L 588.5,761.0 L 588.5,760.0 L 588.5,759.0 L 588.5,758.0 L 588.5,757.0 L 588.5,756.0 L 588.5,755.0 L 588.5,754.0 L 588.5,753.0 L 588.5,752.0 L 588.0,751.5 L 587.5,751.0 L 587.5,750.0 L 587.5,749.0 L 587.5,748.0 L 587.5,747.0 L 587.5,746.0 L 587.0,745.5 L 586.5,745.0 L 586.5,744.0 L 586.5,743.0 L 586.5,742.0 L 586.5,741.0 L 586.5,740.0 L 586.5,739.0 L 586.0,738.5 L 585.5,738.0 L 585.5,737.0 L 585.5,736.0 L 585.5,735.0 L 585.5,734.0 L 585.0,733.5 L 584.5,733.0 L 584.5,732.0 L 584.5,731.0 L 584.5,730.0 L 584.5,729.0 L 584.5,728.0 L 584.0,727.5 L 583.5,727.0 L 583.5,726.0 L 583.5,725.0 L 583.5,724.0 L 583.5,723.0 L 583.0,722.5 L 582.5,722.0 L 582.5,721.0 L 582.5,720.0 L 582.5,719.0 L 582.0,718.5 L 581.5,718.0 L 581.5,717.0 L 581.5,716.0 L 581.5,715.0 L 581.0,714.5 L 580.5,714.0 L 580.5,713.0 L 580.5,712.0 L 580.5,711.0 L 580.0,710.5 L 579.5,710.0 L 579.5,709.0 L 579.5,708.0 L 579.5,707.0 L 579.0,706.5 L 578.5,706.0 L 578.5,705.0 L 578.5,704.0 L 578.5,703.0 L 578.0,702.5 L 577.5,702.0 L 577.5,701.0 L 577.5,700.0 L 577.0,699.5 L 576.5,699.0 L 576.5,698.0 L 576.5,697.0 L 576.0,696.5 L 575.5,696.0 L 575.5,695.0 L 575.5,694.0 L 575.0,693.5 L 574.5,693.0 L 575.0,692.5 L 575.5,692.0 L 575.0,691.5 L 574.5,691.0 L 574.0,690.5 L 573.5,690.0 L 573.5,689.0 L 573.5,688.0 L 573.5,687.0 L 573.0,686.5 L 572.5,686.0 L 572.5,685.0 L 572.0,684.5 L 571.5,684.0 L 571.5,683.0 L 571.5,682.0 L 571.0,681.5 L 570.5,681.0 L 570.5,680.0 L 570.0,679.5 L 569.5,679.0 L 569.5,678.0 L 569.5,677.0 L 569.0,676.5 L 568.5,676.0 L 568.5,675.0 L 568.0,674.5 L 567.5,674.0 L 567.5,673.0 L 567.0,672.5 L 566.5,672.0 L 566.5,671.0 L 566.0,670.5 L 565.5,670.0 L 565.5,669.0 L 565.0,668.5 L 564.5,668.0 L 564.5,667.0 L 564.5,666.0 L 564.0,665.5 L 563.5,665.0 L 563.5,664.0 L 563.5,663.0 L 563.0,662.5 L 562.5,662.0 L 562.5,661.0 L 562.0,660.5 L 561.5,660.0 L 561.5,659.0 L 561.0,658.5 L 560.5,658.0 L 560.5,657.0 L 560.0,656.5 L 559.5,656.0 L 559.5,655.0 L 559.0,654.5 L 558.5,654.0 L 558.0,653.5 L 557.5,653.0 L 557.5,652.0 L 557.5,651.0 L 557.0,650.5 L 556.5,650.0 L 556.5,649.0 L 556.0,648.5 L 555.5,648.0 L 555.0,647.5 L 554.5,647.0 L 554.0,646.5 L 553.5,646.0 L 553.5,645.0 L 553.0,644.5 L 552.5,644.0 L 552.5,643.0 L 552.0,642.5 L 551.5,642.0 L 551.5,641.0 L 551.0,640.5 L 550.5,640.0 L 550.5,639.0 L 550.0,638.5 L 549.0,638.5 L 548.5,638.0 L 548.5,637.0 L 548.5,636.0 L 548.0,635.5 L 547.0,635.5 L 546.5,635.0 L 546.5,634.0 L 546.0,633.5 L 545.5,633.0 L 545.0,632.5 L 544.5,632.0 L 544.5,631.0 L 544.0,630.5 L 543.5,630.0 L 543.0,629.5 L 542.5,629.0 L 542.5,628.0 L 542.0,627.5 L 541.5,627.0 L 541.0,626.5 L 540.5,626.0 L 540.0,625.5 L 539.5,625.0 L 539.0,624.5 L 538.5,624.0 L 538.5,623.0 L 538.0,622.5 L 537.5,622.0 L 537.0,621.5 L 536.5,621.0 L 536.0,620.5 L 535.5,620.0 L 535.0,619.5 L 534.5,619.0 L 534.0,618.5 L 533.5,618.0 L 533.5,617.0 L 533.0,616.5 L 532.5,616.0 L 532.0,615.5 L 531.5,615.0 L 531.0,614.5 L 530.5,614.0 L 530.0,613.5 L 529.5,613.0 L 529.0,612.5 L 528.5,612.0 L 528.0,611.5 L 527.5,611.0 L 527.0,610.5 L 526.5,610.0 L 526.0,609.5 L 525.5,609.0 L 525.0,608.5 L 524.5,608.0 L 524.0,607.5 L 523.5,607.0 L 523.0,606.5 L 522.5,606.0 L 522.0,605.5 L 521.5,605.0 L 521.0,604.5 L 520.5,604.0 L 520.0,603.5 L 519.5,603.0 L 519.0,602.5 L 518.5,602.0 L 518.0,601.5 L 517.5,601.0 L 517.0,600.5 L 516.0,600.5 L 515.5,600.0 L 515.0,599.5 L 514.5,599.0 L 514.0,598.5 L 513.5,598.0 L 513.0,597.5 L 512.0,597.5 L 511.5,597.0 L 511.0,596.5 L 510.5,596.0 L 510.0,595.5 L 509.5,595.0 L 509.0,594.5 L 508.0,594.5 L 507.5,594.0 L 507.0,593.5 L 506.5,593.0 L 506.0,592.5 L 505.0,592.5 L 504.5,592.0 L 504.0,591.5 L 503.5,591.0 L 503.0,590.5 L 502.0,590.5 L 501.5,590.0 L 501.0,589.5 L 500.5,589.0 L 500.0,588.5 L 499.0,588.5 L 498.5,588.0 L 498.0,587.5 L 497.0,587.5 L 496.5,587.0 L 496.0,586.5 L 495.5,586.0 L 495.0,585.5 L 494.0,585.5 L 493.5,585.0 L 493.0,584.5 L 492.0,584.5 L 491.5,584.0 L 491.0,583.5 L 490.0,583.5 L 489.5,583.0 L 489.0,582.5 L 488.0,582.5 L 487.5,582.0 L 487.0,581.5 L 486.0,581.5 L 485.0,581.5 L 484.5,581.0 L 484.0,580.5 L 483.0,580.5 L 482.0,580.5 L 481.5,580.0 L 481.0,579.5 L 480.0,579.5 L 479.5,579.0 L 479.0,578.5 L 478.0,578.5 L 477.0,578.5 L 476.5,578.0 L 476.0,577.5 L 475.0,577.5 L 474.0,577.5 L 473.0,577.5 L 472.5,577.0 L 472.0,576.5 L 471.0,576.5 L 470.0,576.5 L 469.5,576.0 L 469.0,575.5 L 468.0,575.5 L 467.0,575.5 L 466.0,575.5 L 465.5,575.0 L 465.0,574.5 L 464.0,574.5 L 463.0,574.5 L 462.0,574.5 L 461.0,574.5 L 460.5,574.0 L 460.0,573.5 L 459.0,573.5 L 458.0,573.5 L 457.0,573.5 L 456.0,573.5 L 455.0,573.5 L 454.0,573.5 L 453.0,573.5 L 452.0,573.5 L 451.5,573.0 L 451.0,572.5 L 450.0,572.5 L 449.0,572.5 L 448.0,572.5 L 447.0,572.5 L 446.0,572.5 L 445.0,572.5 L 444.0,572.5 L 443.0,572.5 L 442.0,572.5 L 441.0,572.5 L 440.0,572.5 L 439.0,572.5 L 438.0,572.5 L 437.0,572.5 L 436.5,573.0 L 436.0,573.5 L 435.0,573.5 L 434.0,573.5 L 433.0,573.5 L 432.0,573.5 L 431.0,573.5 L 430.0,573.5 L 429.0,573.5 L 428.5,574.0 L 428.0,574.5 L 427.0,574.5 L 426.0,574.5 L 425.0,574.5 L 424.0,574.5 L 423.5,575.0 L 423.0,575.5 L 422.0,575.5 L 421.0,575.5 L 420.0,575.5 L 419.5,576.0 L 419.0,576.5 L 418.0,576.5 L 417.0,576.5 L 416.5,577.0 L 416.0,577.5 L 415.0,577.5 L 414.0,577.5 L 413.5,578.0 L 413.0,578.5 L 412.0,578.5 L 411.0,578.5 L 410.5,579.0 L 410.0,579.5 L 409.0,579.5 L 408.0,579.5 L 407.0,579.5 L 406.5,580.0 L 406.0,580.5 L 405.5,581.0 L 405.0,581.5 L 404.0,581.5 L 403.5,582.0 L 403.0,582.5 L 402.0,582.5 L 401.5,583.0 L 401.0,583.5 L 400.0,583.5 L 399.5,584.0 L 399.0,584.5 L 398.0,584.5 L 397.0,584.5 L 396.5,585.0 L 396.0,585.5 L 395.5,586.0 L 395.0,586.5 L 394.5,587.0 L 394.0,587.5 L 393.0,587.5 L 392.5,588.0 L 392.0,588.5 L 391.5,589.0 L 391.0,589.5 L 390.0,589.5 L 389.5,590.0 L 389.0,590.5 L 388.5,591.0 L 388.0,591.5 L 387.0,591.5 L 386.5,592.0 L 386.0,592.5 L 385.5,593.0 L 385.0,593.5 L 384.5,594.0 L 384.0,594.5 L 383.0,594.5 L 382.5,595.0 L 382.0,595.5 L 381.5,596.0 L 381.0,596.5 L 380.0,596.5 L 379.5,597.0 L 379.5,598.0 L 379.0,598.5 L 378.5,599.0 L 378.0,599.5 L 377.5,600.0 L 377.0,600.5 L 376.0,600.5 L 375.0,600.5 L 374.5,601.0 L 374.0,601.5 L 373.5,602.0 L 373.0,602.5 L 372.5,603.0 L 372.0,603.5 L 371.5,604.0 L 371.0,604.5 L 370.5,605.0 L 370.0,605.5 L 369.5,606.0 L 369.5,607.0 L 369.0,607.5 L 368.5,608.0 L 368.0,608.5 L 367.5,609.0 L 367.0,609.5 L 366.5,610.0 L 366.0,610.5 L 365.5,611.0 L 365.0,611.5 L 364.5,612.0 L 364.0,612.5 L 363.5,613.0 L 363.0,613.5 L 362.5,614.0 L 362.0,614.5 L 361.5,615.0 L 361.5,616.0 L 361.0,616.5 L 360.5,617.0 L 360.0,617.5 L 359.5,618.0 L 359.0,618.5 L 358.5,619.0 L 358.0,619.5 L 357.5,620.0 L 357.0,620.5 L 356.5,621.0 L 356.5,622.0 L 356.0,622.5 L 355.0,622.5 L 354.5,623.0 L 354.5,624.0 L 354.0,624.5 L 353.5,625.0 L 353.5,626.0 L 353.0,626.5 L 352.0,626.5 L 351.5,627.0 L 351.5,628.0 L 351.0,628.5 L 350.5,629.0 L 350.0,629.5 L 349.5,630.0 L 349.5,631.0 L 349.0,631.5 L 348.5,632.0 L 348.0,632.5 L 347.5,633.0 L 347.5,634.0 L 347.0,634.5 L 346.5,635.0 L 346.5,636.0 L 346.0,636.5 L 345.5,637.0 L 345.0,637.5 L 344.5,638.0 L 344.5,639.0 L 344.0,639.5 L 343.5,640.0 L 343.0,640.5 L 342.5,641.0 L 342.5,642.0 L 342.0,642.5 L 341.5,643.0 L 341.5,644.0 L 341.0,644.5 L 340.5,645.0 L 340.5,646.0 L 340.0,646.5 L 339.5,647.0 L 339.0,647.5 L 338.5,648.0 L 338.5,649.0 L 338.0,649.5 L 337.5,650.0 L 337.5,651.0 L 337.0,651.5 L 336.5,652.0 L 336.5,653.0 L 336.0,653.5 L 335.5,654.0 L 335.5,655.0 L 335.0,655.5 L 334.5,656.0 L 334.5,657.0 L 334.0,657.5 L 333.5,658.0 L 333.5,659.0 L 333.0,659.5 L 332.5,660.0 L 332.5,661.0 L 332.0,661.5 L 331.5,662.0 L 331.5,663.0 L 331.5,664.0 L 331.0,664.5 L 330.5,665.0 L 330.5,666.0 L 330.5,667.0 L 330.0,667.5 L 329.5,668.0 L 329.0,668.5 L 328.5,669.0 L 328.5,670.0 L 328.5,671.0 L 328.0,671.5 L 327.5,672.0 L 327.5,673.0 L 327.5,674.0 L 327.5,675.0 L 327.0,675.5 L 326.5,676.0 L 326.5,677.0 L 326.0,677.5 L 325.5,678.0 L 325.5,679.0 L 325.5,680.0 L 325.0,680.5 L 324.5,681.0 L 324.5,682.0 L 324.0,682.5 L 323.5,683.0 L 323.5,684.0 L 323.5,685.0 L 323.0,685.5 L 322.5,686.0 L 322.0,686.5 L 321.5,687.0 L 322.0,687.5 L 322.5,688.0 L 322.5,689.0 L 322.0,689.5 L 321.5,690.0 L 321.5,691.0 L 321.5,692.0 L 321.0,692.5 L 320.5,693.0 L 320.5,694.0 L 320.5,695.0 L 320.0,695.5 L 319.5,696.0 L 319.5,697.0 L 319.5,698.0 L 319.0,698.5 L 318.5,699.0 L 318.5,700.0 L 318.5,701.0 L 318.0,701.5 L 317.5,702.0 L 317.5,703.0 L 317.5,704.0 L 317.5,705.0 L 317.5,706.0 L 317.0,706.5 L 316.5,707.0 L 316.5,708.0 L 316.5,709.0 L 316.5,710.0 L 316.0,710.5 L 315.5,711.0 L 315.5,712.0 L 315.5,713.0 L 315.5,714.0 L 315.0,714.5 L 314.5,715.0 L 314.5,716.0 L 314.5,717.0 L 314.5,718.0 L 314.5,719.0 L 314.0,719.5 L 313.5,720.0 L 313.5,721.0 L 313.5,722.0 L 314.0,722.5 L 314.5,723.0 L 314.0,723.5 L 313.5,724.0 L 313.0,724.5 L 312.5,725.0 L 313.0,725.5 L 313.5,726.0 L 313.0,726.5 L 312.5,727.0 L 313.0,727.5 L 313.5,728.0 L 313.0,728.5 L 312.5,729.0 L 312.5,730.0 L 312.5,731.0 L 312.5,732.0 L 312.5,733.0 L 312.5,734.0 L 312.5,735.0 L 312.0,735.5 L 311.5,736.0 L 311.5,737.0 L 311.5,738.0 L 311.5,739.0 L 311.5,740.0 L 311.5,741.0 L 311.5,742.0 L 311.0,742.5 L 310.5,743.0 L 310.5,744.0 L 310.5,745.0 L 310.5,746.0 L 310.5,747.0 L 310.5,748.0 L 310.5,749.0 L 310.5,750.0 L 310.5,751.0 L 310.5,752.0 L 310.0,752.5 L 309.5,753.0 L 309.5,754.0 L 309.5,755.0 L 309.5,756.0 L 309.5,757.0 L 309.5,758.0 L 309.5,759.0 L 309.5,760.0 L 309.5,761.0 L 309.5,762.0 L 309.5,763.0 L 309.5,764.0 L 309.5,765.0 L 309.5,766.0 L 309.0,766.5 L 308.5,767.0 L 308.5,768.0 L 308.5,769.0 L 308.5,770.0 L 308.5,771.0 L 308.5,772.0 L 308.5,773.0 L 308.5,774.0 L 308.5,775.0 L 308.5,776.0 L 308.5,777.0 L 308.5,778.0 L 308.5,779.0 L 308.5,780.0 L 308.5,781.0 L 308.5,782.0 L 308.0,782.5 L 307.0,782.5 L 306.5,783.0 L 306.5,784.0 L 306.0,784.5 L 305.0,784.5 L 304.0,784.5 L 303.0,784.5 L 302.0,784.5 L 301.0,784.5 L 300.0,784.5 L 299.0,784.5 L 298.0,784.5 L 297.0,784.5 L 296.0,784.5 L 295.0,784.5 L 294.0,784.5 L 293.0,784.5 L 292.0,784.5 L 291.0,784.5 L 290.0,784.5 L 289.0,784.5 L 288.0,784.5 L 287.0,784.5 L 286.0,784.5 L 285.0,784.5 L 284.0,784.5 L 283.0,784.5 L 282.0,784.5 L 281.0,784.5 L 280.0,784.5 L 279.0,784.5 L 278.0,784.5 L 277.0,784.5 L 276.0,784.5 L 275.0,784.5 L 274.0,784.5 L 273.0,784.5 L 272.0,784.5 L 271.0,784.5 L 270.0,784.5 L 269.0,784.5 L 268.0,784.5 L 267.0,784.5 L 266.0,784.5 L 265.0,784.5 L 264.0,784.5 L 263.0,784.5 L 262.0,784.5 L 261.0,784.5 L 260.0,784.5 L 259.0,784.5 L 258.0,784.5 L 257.0,784.5 L 256.0,784.5 L 255.0,784.5 L 254.0,784.5 L 253.0,784.5 L 252.0,784.5 L 251.0,784.5 L 250.0,784.5 L 249.0,784.5 L 248.0,784.5 L 247.0,784.5 L 246.0,784.5 L 245.0,784.5 L 244.0,784.5 L 243.0,784.5 L 242.0,784.5 L 241.0,784.5 L 240.0,784.5 L 239.0,784.5 L 238.0,784.5 L 237.0,784.5 L 236.0,784.5 L 235.0,784.5 L 234.0,784.5 L 233.0,784.5 L 232.0,784.5 L 231.0,784.5 L 230.0,784.5 L 229.0,784.5 L 228.0,784.5 L 227.0,784.5 L 226.0,784.5 L 225.0,784.5 L 224.5,784.0 L 224.5,783.0 L 224.5,782.0 L 224.5,781.0 L 224.5,780.0 L 224.5,779.0 L 224.5,778.0 L 224.5,777.0 L 224.5,776.0 L 224.5,775.0 L 224.5,774.0 L 224.5,773.0 L 224.5,772.0 L 224.5,771.0 L 224.5,770.0 L 224.5,769.0 L 224.5,768.0 L 224.5,767.0 L 224.5,766.0 L 224.5,765.0 L 224.5,764.0 L 224.5,763.0 L 224.5,762.0 L 224.5,761.0 L 224.5,760.0 L 224.5,759.0 L 224.5,758.0 L 224.5,757.0 L 224.5,756.0 L 224.5,755.0 L 224.5,754.0 L 224.5,753.0 L 224.5,752.0 L 224.5,751.0 L 224.5,750.0 L 224.5,749.0 L 224.5,748.0 L 224.5,747.0 L 224.5,746.0 L 224.5,745.0 L 224.5,744.0 L 224.5,743.0 L 224.5,742.0 L 224.5,741.0 L 224.5,740.0 L 224.5,739.0 L 224.5,738.0 L 224.5,737.0 L 224.5,736.0 L 224.5,735.0 L 224.5,734.0 L 225.0,733.5 L 225.5,733.0 L 225.5,732.0 L 225.5,731.0 L 225.5,730.0 L 225.5,729.0 L 225.5,728.0 L 225.5,727.0 L 225.5,726.0 L 225.5,725.0 L 225.5,724.0 L 225.5,723.0 L 225.5,722.0 L 225.5,721.0 L 225.5,720.0 L 225.5,719.0 L 225.5,718.0 L 225.5,717.0 L 225.5,716.0 L 225.5,715.0 L 225.5,714.0 L 225.5,713.0 L 225.5,712.0 L 225.5,711.0 L 225.5,710.0 L 225.5,709.0 L 225.5,708.0 L 225.5,707.0 L 225.5,706.0 L 225.5,705.0 L 225.5,704.0 L 225.5,703.0 L 225.5,702.0 L 225.5,701.0 L 225.0,700.5 L 224.5,700.0 L 225.0,699.5 L 225.5,699.0 L 225.5,698.0 L 225.5,697.0 L 225.5,696.0 L 225.5,695.0 L 225.5,694.0 L 225.5,693.0 L 225.5,692.0 L 225.5,691.0 L 225.5,690.0 L 225.5,689.0 L 225.5,688.0 L 225.5,687.0 L 225.5,686.0 L 225.5,685.0 L 225.5,684.0 L 225.5,683.0 L 225.5,682.0 L 225.5,681.0 L 225.5,680.0 L 225.5,679.0 L 225.5,678.0 L 225.5,677.0 L 225.5,676.0 L 225.5,675.0 L 225.5,674.0 L 225.5,673.0 L 225.5,672.0 L 225.5,671.0 L 225.5,670.0 L 225.5,669.0 L 225.5,668.0 L 225.5,667.0 L 225.5,666.0 L 225.5,665.0 L 225.5,664.0 L 225.5,663.0 L 225.5,662.0 L 225.5,661.0 L 225.5,660.0 L 225.5,659.0 L 225.5,658.0 L 225.5,657.0 L 225.5,656.0 L 225.5,655.0 L 225.5,654.0 L 225.5,653.0 L 225.5,652.0 L 225.5,651.0 L 225.5,650.0 L 225.5,649.0 L 225.5,648.0 L 225.5,647.0 L 225.5,646.0 L 225.5,645.0 L 225.5,644.0 L 225.5,643.0 L 225.5,642.0 L 225.5,641.0 L 225.5,640.0 L 225.5,639.0 L 225.5,638.0 L 225.5,637.0 L 225.5,636.0 L 225.5,635.0 L 225.5,634.0 L 225.5,633.0 L 225.5,632.0 L 225.5,631.0 L 225.5,630.0 L 225.5,629.0 L 225.5,628.0 L 225.5,627.0 L 225.5,626.0 L 225.5,625.0 L 225.0,624.5 L 224.5,624.0 L 224.5,623.0 L 224.5,622.0 L 224.5,621.0 L 224.5,620.0 L 225.0,619.5 L 225.5,619.0 L 225.5,618.0 L 225.5,617.0 L 226.0,616.5 L 226.5,616.0 L 226.5,615.0 L 226.5,614.0 L 226.5,613.0 L 226.5,612.0 L 226.5,611.0 L 226.5,610.0 L 226.5,609.0 L 226.5,608.0 L 226.5,607.0 L 226.5,606.0 L 226.5,605.0 L 226.5,604.0 L 226.0,603.5 L 225.5,603.0 L 225.5,602.0 L 225.5,601.0 L 226.0,600.5 L 226.5,600.0 L 226.5,599.0 L 226.5,598.0 L 226.5,597.0 L 226.5,596.0 L 226.5,595.0 L 226.5,594.0 L 226.5,593.0 L 226.5,592.0 L 226.0,591.5 L 225.5,591.0 L 226.0,590.5 L 226.5,590.0 L 227.0,589.5 L 227.5,589.0 L 227.0,588.5 L 226.5,588.0 L 226.5,587.0 L 226.5,586.0 L 226.5,585.0 L 226.5,584.0 L 226.5,583.0 L 226.5,582.0 L 226.5,581.0 L 226.5,580.0 L 226.5,579.0 L 226.5,578.0 L 226.5,577.0 L 226.5,576.0 L 226.5,575.0 L 226.5,574.0 L 226.5,573.0 L 226.5,572.0 L 226.5,571.0 L 227.0,570.5 L 227.5,570.0 L 227.5,569.0 L 227.5,568.0 L 227.5,567.0 L 227.5,566.0 L 227.5,565.0 L 227.5,564.0 L 227.5,563.0 L 228.0,562.5 L 228.5,562.0 L 228.5,561.0 L 228.5,560.0 L 228.5,559.0 L 228.5,558.0 L 228.5,557.0 L 228.5,556.0 L 228.5,555.0 L 228.5,554.0 L 228.5,553.0 L 229.0,552.5 L 229.5,552.0 L 229.5,551.0 L 229.5,550.0 L 229.5,549.0 L 229.5,548.0 L 229.5,547.0 L 229.5,546.0 L 229.5,545.0 L 229.5,544.0 L 229.5,543.0 L 229.5,542.0 L 229.5,541.0 L 230.0,540.5 L 230.5,540.0 L 230.5,539.0 L 230.5,538.0 L 230.5,537.0 L 230.5,536.0 L 230.5,535.0 L 230.5,534.0 L 230.5,533.0 L 230.5,532.0 L 230.5,531.0 L 230.5,530.0 L 231.0,529.5 L 231.5,529.0 L 231.5,528.0 L 231.5,527.0 L 231.5,526.0 L 231.5,525.0 L 231.5,524.0 L 231.5,523.0 L 231.5,522.0 L 231.5,521.0 L 231.5,520.0 L 232.0,519.5 L 232.5,519.0 L 232.5,518.0 L 232.5,517.0 L 232.5,516.0 L 232.5,515.0 L 232.5,514.0 L 232.5,513.0 L 232.5,512.0 L 233.0,511.5 L 233.5,511.0 L 233.5,510.0 L 233.5,509.0 L 233.5,508.0 L 233.5,507.0 L 233.5,506.0 L 233.5,505.0 L 233.5,504.0 L 234.0,503.5 L 234.5,503.0 L 234.5,502.0 L 234.5,501.0 L 234.5,500.0 L 234.5,499.0 L 234.5,498.0 L 234.5,497.0 L 235.0,496.5 L 235.5,496.0 L 235.5,495.0 L 235.5,494.0 L 235.5,493.0 L 235.5,492.0 L 235.5,491.0 L 236.0,490.5 L 236.5,490.0 L 236.5,489.0 L 236.5,488.0 L 236.5,487.0 L 236.5,486.0 L 236.5,485.0 L 236.5,484.0 L 237.0,483.5 L 237.5,483.0 L 237.5,482.0 L 237.5,481.0 L 237.5,480.0 L 237.5,479.0 L 237.5,478.0 L 238.0,477.5 L 238.5,477.0 L 238.5,476.0 L 238.5,475.0 L 238.5,474.0 L 238.5,473.0 L 239.0,472.5 L 239.5,472.0 L 239.5,471.0 L 239.5,470.0 L 239.5,469.0 L 239.5,468.0 L 239.5,467.0 L 240.0,466.5 L 240.5,466.0 L 240.5,465.0 L 240.5,464.0 L 240.5,463.0 L 240.5,462.0 L 241.0,461.5 L 241.5,461.0 L 241.5,460.0 L 241.5,459.0 L 241.5,458.0 L 241.5,457.0 L 241.5,456.0 L 241.5,455.0 L 242.0,454.5 L 242.5,454.0 L 242.5,453.0 L 242.5,452.0 L 242.5,451.0 L 243.0,450.5 L 243.5,450.0 L 243.5,449.0 L 243.5,448.0 L 243.5,447.0 L 243.5,446.0 L 244.0,445.5 L 244.5,445.0 L 244.5,444.0 L 244.5,443.0 L 244.5,442.0 L 245.0,441.5 L 245.5,441.0 L 245.5,440.0 L 245.5,439.0 L 245.5,438.0 L 246.0,437.5 L 246.5,437.0 L 246.5,436.0 L 246.5,435.0 L 246.5,434.0 L 247.0,433.5 L 247.5,433.0 L 247.5,432.0 L 247.5,431.0 L 247.5,430.0 L 247.5,429.0 L 248.0,428.5 L 248.5,428.0 L 248.5,427.0 L 248.5,426.0 L 249.0,425.5 L 249.5,425.0 L 249.5,424.0 L 249.5,423.0 L 249.5,422.0 L 250.0,421.5 L 250.5,421.0 L 250.5,420.0 L 250.5,419.0 L 250.5,418.0 L 251.0,417.5 L 251.5,417.0 L 251.5,416.0 L 251.5,415.0 L 252.0,414.5 L 252.5,414.0 L 252.5,413.0 L 252.5,412.0 L 252.5,411.0 L 253.0,410.5 L 253.5,410.0 L 253.5,409.0 L 253.5,408.0 L 254.0,407.5 L 254.5,407.0 L 254.5,406.0 L 254.5,405.0 L 255.0,404.5 L 255.5,404.0 L 255.5,403.0 L 255.5,402.0 L 255.5,401.0 L 256.0,400.5 L 256.5,400.0 L 256.5,399.0 L 256.5,398.0 L 256.5,397.0 L 257.0,396.5 L 257.5,396.0 L 257.5,395.0 L 257.5,394.0 L 258.0,393.5 L 258.5,393.0 L 258.5,392.0 L 258.5,391.0 L 259.0,390.5 L 259.5,390.0 L 260.0,389.5 L 260.5,389.0 L 260.0,388.5 L 259.5,388.0 L 260.0,387.5 L 260.5,387.0 L 260.5,386.0 L 261.0,385.5 L 261.5,385.0 L 261.5,384.0 L 262.0,383.5 L 262.5,383.0 L 262.5,382.0 L 262.5,381.0 L 262.5,380.0 L 263.0,379.5 L 263.5,379.0 L 263.5,378.0 L 263.5,377.0 L 264.0,376.5 L 264.5,376.0 L 264.5,375.0 L 264.5,374.0 L 265.0,373.5 L 265.5,373.0 L 266.0,372.5 L 266.5,372.0 L 266.5,371.0 L 266.5,370.0 L 267.0,369.5 L 267.5,369.0 L 267.5,368.0 L 268.0,367.5 L 268.5,367.0 L 268.5,366.0 L 268.5,365.0 L 268.5,364.0 L 269.0,363.5 L 269.5,363.0 L 269.5,362.0 L 270.0,361.5 L 270.5,361.0 L 270.5,360.0 L 270.5,359.0 L 271.0,358.5 L 271.5,358.0 L 272.0,357.5 L 272.5,357.0 L 272.5,356.0 L 273.0,355.5 L 273.5,355.0 L 273.5,354.0 L 273.5,353.0 L 274.0,352.5 L 274.5,352.0 L 274.5,351.0 L 274.5,350.0 L 275.0,349.5 L 275.5,349.0 L 276.0,348.5 L 276.5,348.0 L 276.5,347.0 L 277.0,346.5 L 277.5,346.0 L 277.5,345.0 L 277.5,344.0 L 278.0,343.5 L 278.5,343.0 L 278.5,342.0 L 279.0,341.5 L 279.5,341.0 L 279.5,340.0 L 280.0,339.5 L 280.5,339.0 L 280.5,338.0 L 281.0,337.5 L 281.5,337.0 L 282.0,336.5 L 282.5,336.0 L 282.5,335.0 L 283.0,334.5 L 283.5,334.0 L 283.5,333.0 L 283.5,332.0 L 284.0,331.5 L 284.5,331.0 L 285.0,330.5 L 285.5,330.0 L 285.5,329.0 L 286.0,328.5 L 286.5,328.0 L 286.5,327.0 L 287.0,326.5 L 287.5,326.0 L 287.5,325.0 L 288.0,324.5 L 288.5,324.0 L 289.0,323.5 L 289.5,323.0 L 289.5,322.0 L 289.5,321.0 L 290.0,320.5 L 290.5,320.0 L 291.0,319.5 L 291.5,319.0 L 292.0,318.5 L 292.5,318.0 L 292.5,317.0 L 292.5,316.0 L 293.0,315.5 L 293.5,315.0 L 293.5,314.0 L 294.0,313.5 L 294.5,313.0 L 295.0,312.5 L 295.5,312.0 L 296.0,311.5 L 296.5,311.0 L 296.5,310.0 L 297.0,309.5 L 297.5,309.0 L 298.0,308.5 L 298.5,308.0 L 298.5,307.0 L 299.0,306.5 L 299.5,306.0 L 300.0,305.5 L 300.5,305.0 L 300.5,304.0 L 301.0,303.5 L 301.5,303.0 L 301.5,302.0 L 302.0,301.5 L 302.5,301.0 L 303.0,300.5 L 303.5,300.0 L 304.0,299.5 L 304.5,299.0 L 304.5,298.0 L 305.0,297.5 L 305.5,297.0 L 306.0,296.5 L 306.5,296.0 L 306.5,295.0 L 307.0,294.5 L 307.5,294.0 L 308.0,293.5 L 308.5,293.0 L 308.5,292.0 L 309.0,291.5 L 310.0,291.5 L 310.5,291.0 L 310.5,290.0 L 311.0,289.5 L 311.5,289.0 L 311.5,288.0 L 312.0,287.5 L 313.0,287.5 L 313.5,287.0 L 314.0,286.5 L 314.5,286.0 L 314.5,285.0 L 315.0,284.5 L 315.5,284.0 L 316.0,283.5 L 316.5,283.0 L 317.0,282.5 L 317.5,282.0 L 318.0,281.5 L 318.5,281.0 L 319.0,280.5 L 319.5,280.0 L 319.5,279.0 L 320.0,278.5 L 320.5,278.0 L 321.0,277.5 L 321.5,277.0 L 322.0,276.5 L 322.5,276.0 L 323.0,275.5 L 323.5,275.0 L 324.0,274.5 L 324.5,274.0 L 325.0,273.5 L 325.5,273.0 L 326.0,272.5 L 326.5,272.0 L 327.0,271.5 L 327.5,271.0 L 328.0,270.5 L 328.5,270.0 L 329.0,269.5 L 329.5,269.0 L 330.0,268.5 L 330.5,268.0 L 331.0,267.5 L 331.5,267.0 L 332.0,266.5 L 332.5,266.0 L 333.0,265.5 L 333.5,265.0 L 334.0,264.5 L 334.5,264.0 L 334.5,263.0 L 335.0,262.5 L 336.0,262.5 L 337.0,262.5 L 337.5,262.0 L 338.0,261.5 L 338.5,261.0 L 339.0,260.5 L 339.5,260.0 L 340.0,259.5 L 340.5,259.0 L 341.0,258.5 L 341.5,258.0 L 342.0,257.5 L 343.0,257.5 L 343.5,257.0 L 344.0,256.5 L 344.5,256.0 L 344.5,255.0 L 345.0,254.5 L 346.0,254.5 L 346.5,254.0 L 347.0,253.5 L 347.5,253.0 L 348.0,252.5 L 348.5,252.0 L 349.0,251.5 L 350.0,251.5 L 351.0,251.5 L 351.5,251.0 L 351.5,250.0 L 352.0,249.5 L 353.0,249.5 L 353.5,249.0 L 354.0,248.5 L 355.0,248.5 L 355.5,248.0 L 356.0,247.5 L 356.5,247.0 L 357.0,246.5 L 358.0,246.5 L 358.5,246.0 L 359.0,245.5 L 359.5,245.0 L 360.0,244.5 L 361.0,244.5 L 361.5,244.0 L 362.0,243.5 L 362.5,243.0 L 363.0,242.5 L 364.0,242.5 L 365.0,242.5 L 365.5,242.0 L 366.0,241.5 L 367.0,241.5 L 367.5,241.0 L 368.0,240.5 L 369.0,240.5 L 369.5,240.0 L 370.0,239.5 L 370.5,239.0 L 371.0,238.5 L 372.0,238.5 L 372.5,238.0 L 373.0,237.5 L 374.0,237.5 L 375.0,237.5 L 376.0,237.5 L 376.5,237.0 L 377.0,236.5 L 377.5,236.0 L 378.0,235.5 L 379.0,235.5 L 379.5,235.0 L 380.0,234.5 L 381.0,234.5 L 381.5,234.0 L 382.0,233.5 L 383.0,233.5 L 384.0,233.5 L 384.5,233.0 L 385.0,232.5 L 386.0,232.5 L 386.5,232.0 L 387.0,231.5 L 388.0,231.5 L 389.0,231.5 L 389.5,231.0 L 390.0,230.5 L 391.0,230.5 L 392.0,230.5 L 392.5,230.0 L 393.0,229.5 L 394.0,229.5 L 395.0,229.5 L 395.5,229.0 L 396.0,228.5 L 397.0,228.5 L 398.0,228.5 L 398.5,228.0 L 399.0,227.5 L 400.0,227.5 L 401.0,227.5 L 402.0,227.5 L 402.5,227.0 L 403.0,226.5 L 404.0,226.5 L 405.0,226.5 L 405.5,226.0 L 406.0,225.5 L 407.0,225.5 L 407.5,226.0 L 408.0,226.5 L 408.5,226.0 L 409.0,225.5 L 409.5,225.0 L 410.0,224.5 L 411.0,224.5 L 412.0,224.5 L 413.0,224.5 L 414.0,224.5 L 414.5,224.0 L 415.0,223.5 L 416.0,223.5 L 417.0,223.5 L 418.0,223.5 L 419.0,223.5 L 419.5,223.0 L 420.0,222.5 L 421.0,222.5 L 422.0,222.5 L 423.0,222.5 L 424.0,222.5 L 424.5,223.0 L 425.0,223.5 L 425.5,223.0 L 426.0,222.5 L 426.5,222.0 L 427.0,221.5 L 427.5,222.0 L 428.0,222.5 L 429.0,222.5 L 430.0,222.5 L 431.0,222.5 L 432.0,222.5 L 433.0,222.5 L 434.0,222.5 L 435.0,222.5 L 435.5,222.0 L 436.0,221.5 L 437.0,221.5 L 438.0,221.5 L 439.0,221.5 L 440.0,221.5 L 441.0,221.5 L 442.0,221.5 L 443.0,221.5 L 444.0,221.5 L 445.0,221.5 L 446.0,221.5 L 447.0,221.5 L 448.0,221.5 L 449.0,221.5 L 450.0,221.5 L 451.0,221.5 L 452.0,221.5 L 453.0,221.5 L 454.0,221.5 L 455.0,221.5 L 456.0,221.5 L 457.0,221.5 L 458.0,221.5 L 459.0,221.5 L 460.0,221.5 L 461.0,221.5 L 462.0,221.5 L 463.0,221.5 L 464.0,221.5 L 465.0,221.5 L 466.0,221.5 L 467.0,221.5 L 468.0,221.5 L 469.0,221.5 L 469.5,222.0 L 470.0,222.5 L 471.0,222.5 L 472.0,222.5 L 473.0,222.5 L 474.0,222.5 L 475.0,222.5 L 476.0,222.5 L 477.0,222.5 L 478.0,222.5 L 479.0,222.5 L 479.5,223.0 L 480.0,223.5 L 481.0,223.5 L 482.0,223.5 L 483.0,223.5 L 484.0,223.5 L 485.0,223.5 L 486.0,223.5 L 486.5,224.0 L 487.0,224.5 L 488.0,224.5 L 489.0,224.5 L 490.0,224.5 L 491.0,224.5 L 491.5,225.0 L 492.0,225.5 L 493.0,225.5 L 493.5,225.0 L 494.0,224.5 L 494.5,225.0 L 495.0,225.5 L 495.5,226.0 L 496.0,226.5 L 497.0,226.5 L 498.0,226.5 L 499.0,226.5 L 500.0,226.5 L 500.5,227.0 L 501.0,227.5 L 502.0,227.5 L 503.0,227.5 L 503.5,228.0 L 504.0,228.5 L 505.0,228.5 L 506.0,228.5 L 507.0,228.5 L 508.0,228.5 L 509.0,228.5 L 509.5,229.0 L 510.0,229.5 L 511.0,229.5 L 511.5,230.0 L 512.0,230.5 L 513.0,230.5 L 514.0,230.5 L 514.5,231.0 L 515.0,231.5 L 516.0,231.5 L 517.0,231.5 L 517.5,232.0 L 518.0,232.5 L 518.5,233.0 L 519.0,233.5 L 520.0,233.5 L 521.0,233.5 L 522.0,233.5 L 522.5,234.0 L 523.0,234.5 L 523.5,235.0 L 524.0,235.5 L 525.0,235.5 L 526.0,235.5 L 526.5,236.0 L 527.0,236.5 L 528.0,236.5 L 529.0,236.5 L 529.5,237.0 L 530.0,237.5 L 531.0,237.5 L 531.5,238.0 L 531.5,239.0 L 532.0,239.5 L 533.0,239.5 L 533.5,240.0 L 534.0,240.5 L 535.0,240.5 L 536.0,240.5 L 536.5,241.0 L 537.0,241.5 L 537.5,242.0 L 538.0,242.5 L 539.0,242.5 L 540.0,242.5 L 540.5,243.0 L 541.0,243.5 L 541.5,244.0 L 542.0,244.5 L 543.0,244.5 L 543.5,245.0 L 544.0,245.5 L 545.0,245.5 L 545.5,246.0 L 546.0,246.5 L 546.5,247.0 L 547.0,247.5 L 547.5,248.0 L 548.0,248.5 L 549.0,248.5 L 549.5,249.0 L 550.0,249.5 L 550.5,250.0 L 551.0,250.5 L 552.0,250.5 L 553.0,250.5 L 553.5,251.0 L 553.5,252.0 L 554.0,252.5 L 554.5,253.0 L 555.0,253.5 L 556.0,253.5 L 557.0,253.5 L 557.5,254.0 L 557.5,255.0 L 558.0,255.5 L 558.5,256.0 L 559.0,256.5 L 560.0,256.5 L 561.0,256.5 L 561.5,257.0 L 562.0,257.5 L 562.5,258.0 L 563.0,258.5 L 563.5,259.0 L 564.0,259.5 L 564.5,260.0 L 564.5,261.0 L 565.0,261.5 L 566.0,261.5 L 567.0,261.5 L 567.5,262.0 L 568.0,262.5 L 568.5,263.0 L 569.0,263.5 L 569.5,264.0 L 570.0,264.5 L 570.5,265.0 L 571.0,265.5 L 571.5,266.0 L 572.0,266.5 L 572.5,267.0 L 573.0,267.5 L 573.5,268.0 L 574.0,268.5 L 574.5,269.0 L 575.0,269.5 L 575.5,270.0 L 576.0,270.5 L 576.5,271.0 L 577.0,271.5 L 577.5,272.0 L 578.0,272.5 L 578.5,273.0 L 578.5,274.0 L 579.0,274.5 L 580.0,274.5 L 580.5,275.0 L 580.5,276.0 L 580.5,277.0 L 581.0,277.5 L 581.5,278.0 L 582.0,278.5 L 582.5,279.0 L 583.0,279.5 L 583.5,280.0 L 584.0,280.5 L 584.5,281.0 L 585.0,281.5 L 585.5,282.0 L 586.0,282.5 L 586.5,283.0 L 586.5,284.0 L 587.0,284.5 L 587.5,285.0 L 588.0,285.5 L 588.5,286.0 L 589.0,286.5 L 589.5,287.0 L 589.5,288.0 L 590.0,288.5 L 590.5,289.0 L 591.0,289.5 L 591.5,290.0 L 592.0,290.5 L 592.5,291.0 L 592.5,292.0 L 593.0,292.5 L 593.5,293.0 L 594.0,293.5 L 594.5,294.0 L 595.0,294.5 L 595.5,295.0 L 595.5,296.0 L 596.0,296.5 L 596.5,297.0 L 597.0,297.5 L 597.5,298.0 L 597.5,299.0 L 598.0,299.5 L 599.0,299.5 L 599.5,300.0 L 599.5,301.0 L 599.5,302.0 L 600.0,302.5 L 600.5,303.0 L 601.0,303.5 L 601.5,304.0 L 602.0,304.5 L 602.5,305.0 L 602.5,306.0 L 603.0,306.5 L 603.5,307.0 L 604.0,307.5 L 604.5,308.0 L 604.5,309.0 L 604.5,310.0 L 605.0,310.5 L 605.5,311.0 L 605.5,312.0 L 606.0,312.5 L 606.5,313.0 L 607.0,313.5 L 607.5,314.0 L 608.0,314.5 L 608.5,315.0 L 608.5,316.0 L 609.0,316.5 L 609.5,317.0 L 609.5,318.0 L 610.0,318.5 L 610.5,319.0 L 610.5,320.0 L 611.0,320.5 L 611.5,321.0 L 611.5,322.0 L 612.0,322.5 L 612.5,323.0 L 612.5,324.0 L 613.0,324.5 L 613.5,325.0 L 614.0,325.5 L 614.5,326.0 L 615.0,326.5 L 615.5,327.0 L 615.5,328.0 L 616.0,328.5 L 616.5,329.0 L 616.5,330.0 L 617.0,330.5 L 617.5,331.0 L 617.5,332.0 L 618.0,332.5 L 618.5,333.0 L 618.5,334.0 L 618.5,335.0 L 619.0,335.5 L 619.5,336.0 L 620.0,336.5 L 620.5,337.0 L 620.5,338.0 L 621.0,338.5 L 621.5,339.0 L 621.5,340.0 L 621.5,341.0 L 622.0,341.5 L 622.5,342.0 L 622.5,343.0 L 623.0,343.5 L 623.5,344.0 L 623.5,345.0 L 623.5,346.0 L 624.0,346.5 L 624.5,347.0 L 624.5,348.0 L 625.0,348.5 L 625.5,349.0 L 625.5,350.0 L 625.5,351.0 L 626.0,351.5 L 626.5,352.0 L 626.5,353.0 L 627.0,353.5 L 627.5,354.0 L 628.0,354.5 L 628.5,355.0 L 628.5,356.0 L 629.0,356.5 L 629.5,357.0 L 629.5,358.0 L 629.5,359.0 L 630.0,359.5 L 630.5,360.0 L 630.5,361.0 L 631.0,361.5 L 631.5,362.0 L 631.5,363.0 L 631.5,364.0 L 632.0,364.5 L 632.5,365.0 L 632.5,366.0 L 633.0,366.5 L 633.5,367.0 L 633.0,367.5 L 632.5,368.0 L 633.0,368.5 L 633.5,369.0 L 634.0,369.5 L 634.5,370.0 L 634.5,371.0 L 635.0,371.5 L 635.5,372.0 L 635.5,373.0 L 635.5,374.0 L 636.0,374.5 L 636.5,375.0 L 636.5,376.0 L 636.5,377.0 L 636.5,378.0 L 637.0,378.5 L 637.5,379.0 L 638.0,379.5 L 638.5,380.0 L 638.0,380.5 L 637.5,381.0 L 638.0,381.5 L 638.5,382.0 L 639.0,382.5 L 639.5,383.0 L 639.0,383.5 L 638.5,384.0 L 639.0,384.5 L 639.5,385.0 L 639.5,386.0 L 639.5,387.0 L 640.0,387.5 L 640.5,388.0 L 640.5,389.0 L 640.5,390.0 L 641.0,390.5 L 641.5,391.0 L 641.5,392.0 L 641.5,393.0 L 642.0,393.5 L 642.5,394.0 L 642.5,395.0 L 643.0,395.5 L 643.5,396.0 L 643.5,397.0 L 643.5,398.0 L 643.5,399.0 L 644.0,399.5 L 644.5,400.0 L 644.5,401.0 L 644.5,402.0 L 645.0,402.5 L 645.5,403.0 L 645.5,404.0 L 645.5,405.0 L 646.0,405.5 L 646.5,406.0 L 646.5,407.0 L 646.5,408.0 L 646.5,409.0 L 647.0,409.5 L 647.5,410.0 L 647.5,411.0 L 647.5,412.0 L 648.0,412.5 L 648.5,413.0 L 648.5,414.0 L 648.5,415.0 L 649.0,415.5 L 649.5,416.0 L 649.5,417.0 L 649.5,418.0 L 649.5,419.0 L 650.0,419.5 L 650.5,420.0 L 650.5,421.0 L 650.5,422.0 L 650.5,423.0 L 651.0,423.5 L 651.5,424.0 L 651.5,425.0 L 651.5,426.0 L 652.0,426.5 L 652.5,427.0 L 652.5,428.0 L 652.5,429.0 L 652.5,430.0 L 653.0,430.5 L 653.5,431.0 L 653.5,432.0 L 653.5,433.0 L 654.0,433.5 L 654.5,434.0 L 654.5,435.0 L 654.5,436.0 L 654.5,437.0 L 654.5,438.0 L 655.0,438.5 L 655.5,439.0 L 655.5,440.0 L 655.5,441.0 L 655.5,442.0 L 656.0,442.5 L 656.5,443.0 L 656.5,444.0 L 656.5,445.0 L 656.5,446.0 L 657.0,446.5 L 657.5,447.0 L 657.5,448.0 L 657.5,449.0 L 657.5,450.0 L 657.5,451.0 L 658.0,451.5 L 658.5,452.0 L 658.5,453.0 L 658.5,454.0 L 658.5,455.0 L 658.5,456.0 L 659.0,456.5 L 659.5,457.0 L 659.5,458.0 L 659.5,459.0 L 659.5,460.0 L 660.0,460.5 L 660.5,461.0 L 660.5,462.0 L 660.5,463.0 L 660.5,464.0 L 660.5,465.0 L 661.0,465.5 L 661.5,466.0 L 661.5,467.0 L 661.5,468.0 L 661.5,469.0 L 661.5,470.0 L 662.0,470.5 L 662.5,471.0 L 662.5,472.0 L 662.5,473.0 L 662.5,474.0 L 662.5,475.0 L 663.0,475.5 L 663.5,476.0 L 663.5,477.0 L 663.5,478.0 L 663.0,478.5 L 662.5,479.0 L 663.0,479.5 L 663.5,480.0 L 663.5,481.0 L 664.0,481.5 L 664.5,482.0 L 664.0,482.5 L 663.5,483.0 L 664.0,483.5 L 664.5,484.0 L 664.0,484.5 L 663.5,485.0 L 664.0,485.5 L 664.5,486.0 L 664.5,487.0 L 664.5,488.0 L 664.5,489.0 L 664.5,490.0 L 664.5,491.0 L 665.0,491.5 L 665.5,492.0 L 665.5,493.0 L 665.5,494.0 L 665.5,495.0 L 665.5,496.0 L 665.5,497.0 L 665.5,498.0 L 666.0,498.5 L 666.5,499.0 L 666.5,500.0 L 666.5,501.0 L 667.0,501.5 L 667.5,502.0 L 667.0,502.5 L 666.5,503.0 L 666.5,504.0 L 667.0,504.5 L 667.5,505.0 L 667.5,506.0 L 667.5,507.0 L 667.5,508.0 L 667.5,509.0 L 667.5,510.0 L 667.5,511.0 L 667.5,512.0 L 668.0,512.5 L 668.5,513.0 L 669.0,513.5 L 669.5,514.0 L 669.5,515.0 L 669.5,516.0 L 669.5,517.0 L 669.5,518.0 L 669.5,519.0 L 669.5,520.0 L 669.5,521.0 L 670.0,521.5 L 670.5,522.0 L 670.5,523.0 L 670.5,524.0 L 670.5,525.0 L 670.5,526.0 L 670.5,527.0 L 670.5,528.0 L 670.5,529.0 L 670.5,530.0 L 671.0,530.5 L 671.5,531.0 L 671.5,532.0 L 671.5,533.0 L 671.5,534.0 L 671.5,535.0 L 671.5,536.0 L 671.5,537.0 L 671.5,538.0 L 671.5,539.0 L 671.5,540.0 L 672.0,540.5 L 672.5,541.0 L 672.5,542.0 L 672.5,543.0 L 672.5,544.0 L 673.0,544.5 L 673.5,545.0 L 673.5,546.0 L 674.0,546.5 L 675.0,546.5 L 675.5,547.0 L 676.0,547.5 L 676.5,548.0 L 677.0,548.5 L 677.5,548.0 L 678.0,547.5 L 678.5,548.0 L 679.0,548.5 L 679.5,548.0 L 680.0,547.5 L 681.0,547.5 L 681.5,547.0 L 682.0,546.5 L 683.0,546.5 L 684.0,546.5 L 684.5,546.0 L 685.0,545.5 L 685.5,545.0 L 686.0,544.5 L 686.5,544.0 L 687.0,543.5 L 687.5,543.0 L 688.0,542.5 L 689.0,542.5 L 689.5,542.0 L 690.0,541.5 L 690.5,541.0 L 691.0,540.5 L 691.5,540.0 L 692.0,539.5 L 692.5,539.0 L 693.0,538.5 L 693.5,538.0 L 694.0,537.5 L 694.5,537.0 L 695.0,536.5 L 695.5,536.0 L 696.0,535.5 L 696.5,535.0 L 697.0,534.5 L 697.5,534.0 L 698.0,533.5 L 699.0,533.5 L 699.5,533.0 L 700.0,532.5 L 700.5,532.0 L 701.0,531.5 L 701.5,531.0 L 702.0,530.5 L 702.5,530.0 L 703.0,529.5 L 703.5,529.0 L 704.0,528.5 L 704.5,528.0 L 705.0,527.5 L 705.5,527.0 L 706.0,526.5 L 707.0,526.5 L 707.5,526.0 L 708.0,525.5 L 708.5,525.0 L 709.0,524.5 L 709.5,524.0 L 710.0,523.5 L 710.5,523.0 L 711.0,522.5 L 711.5,522.0 L 712.0,521.5 L 713.0,521.5 L 713.5,521.0 L 714.0,520.5 L 714.5,520.0 L 715.0,519.5 L 715.5,519.0 L 716.0,518.5 L 717.0,518.5 L 717.5,518.0 L 718.0,517.5 L 718.5,517.0 L 719.0,516.5 L 719.5,516.0 L 720.0,515.5 L 720.5,515.0 L 721.0,514.5 L 722.0,514.5 L 722.5,514.0 L 723.0,513.5 L 723.5,513.0 L 724.0,512.5 L 724.5,512.0 L 725.0,511.5 L 726.0,511.5 L 726.5,511.0 L 727.0,510.5 L 727.5,510.0 L 728.0,509.5 L 728.5,509.0 L 729.0,508.5 L 730.0,508.5 L 730.5,508.0 L 731.0,507.5 L 731.5,507.0 L 732.0,506.5 L 733.0,506.5 L 733.5,506.0 L 734.0,505.5 L 734.5,505.0 L 735.0,504.5 L 736.0,504.5 L 736.5,504.0 L 737.0,503.5 L 737.5,503.0 L 738.0,502.5 L 739.0,502.5 L 739.5,502.0 L 740.0,501.5 L 740.5,501.0 L 741.0,500.5 L 742.0,500.5 L 742.5,500.0 L 743.0,499.5 L 743.5,499.0 L 744.0,498.5 L 745.0,498.5 L 745.5,498.0 L 746.0,497.5 L 747.0,497.5 L 747.5,497.0 L 748.0,496.5 L 749.0,496.5 L 749.5,496.0 L 750.0,495.5 L 751.0,495.5 L 751.5,495.0 L 752.0,494.5 L 753.0,494.5 L 753.5,494.0 L 754.0,493.5 L 755.0,493.5 L 755.5,493.0 L 755.5,492.0 L 756.0,491.5 L 757.0,491.5 L 758.0,491.5 L 758.5,491.0 L 759.0,490.5 L 760.0,490.5 L 760.5,490.0 L 761.0,489.5 L 761.5,489.0 L 762.0,488.5 L 763.0,488.5 L 763.5,488.0 L 764.0,487.5 L 765.0,487.5 L 765.5,487.0 L 766.0,486.5 L 767.0,486.5 L 768.0,486.5 L 768.5,486.0 L 769.0,485.5 L 770.0,485.5 L 770.5,485.0 L 771.0,484.5 L 772.0,484.5 L 773.0,484.5 L 773.5,484.0 L 774.0,483.5 L 774.5,483.0 L 775.0,482.5 L 775.5,482.0 L 776.0,481.5 L 777.0,481.5 L 778.0,481.5 L 779.0,481.5 L 779.5,481.0 L 780.0,480.5 L 781.0,480.5 L 781.5,480.0 L 782.0,479.5 L 783.0,479.5 L 784.0,479.5 L 784.5,479.0 L 785.0,478.5 L 786.0,478.5 L 787.0,478.5 L 787.5,478.0 L 788.0,477.5 L 789.0,477.5 L 790.0,477.5 L 790.5,477.0 L 791.0,476.5 L 792.0,476.5 L 793.0,476.5 L 793.5,476.0 L 794.0,475.5 L 795.0,475.5 L 796.0,475.5 L 796.5,475.0 L 797.0,474.5 L 798.0,474.5 L 799.0,474.5 L 799.5,474.0 L 800.0,473.5 L 801.0,473.5 L 802.0,473.5 L 803.0,473.5 L 803.5,473.0 L 804.0,472.5 L 805.0,472.5 L 806.0,472.5 L 807.0,472.5 L 807.5,472.0 L 808.0,471.5 L 809.0,471.5 L 810.0,471.5 L 811.0,471.5 L 811.5,471.0 L 812.0,470.5 L 813.0,470.5 L 814.0,470.5 L 815.0,470.5 L 815.5,470.0 L 816.0,469.5 L 817.0,469.5 L 818.0,469.5 L 819.0,469.5 L 819.5,469.0 L 820.0,468.5 L 821.0,468.5 L 822.0,468.5 L 823.0,468.5 L 824.0,468.5 L 824.5,468.0 L 825.0,467.5 L 826.0,467.5 L 826.5,468.0 L 827.0,468.5 L 828.0,468.5 L 829.0,468.5 L 829.5,468.0 L 830.0,467.5 L 830.5,467.0 L 831.0,466.5 L 831.5,467.0 L 832.0,467.5 L 833.0,467.5 L 834.0,467.5 L 835.0,467.5 L 836.0,467.5 L 836.5,467.0 L 837.0,466.5 L 838.0,466.5 L 839.0,466.5 L 840.0,466.5 L 841.0,466.5 L 842.0,466.5 L 843.0,466.5 L 844.0,466.5 L 845.0,466.5 L 846.0,466.5 L 846.5,466.0 L 847.0,465.5 L 848.0,465.5 L 849.0,465.5 L 850.0,465.5 L 851.0,465.5 L 852.0,465.5 L 853.0,465.5 L 854.0,465.5 L 855.0,465.5 L 856.0,465.5 L 857.0,465.5 L 858.0,465.5 L 859.0,465.5 L 860.0,465.5 L 861.0,465.5 L 862.0,465.5 L 863.0,465.5 L 864.0,465.5 L 865.0,465.5 L 866.0,465.5 L 867.0,465.5 L 868.0,465.5 L 869.0,465.5 L 870.0,465.5 L 871.0,465.5 L 872.0,465.5 L 873.0,465.5 L 874.0,465.5 L 875.0,465.5 L 876.0,465.5 L 877.0,465.5 L 878.0,465.5 L 879.0,465.5 L 880.0,465.5 L 881.0,465.5 L 882.0,465.5 L 883.0,465.5 L 884.0,465.5 L 885.0,465.5 L 886.0,465.5 L 887.0,465.5 L 888.0,465.5 L 889.0,465.5 L 890.0,465.5 L 891.0,465.5 L 891.5,466.0 L 892.0,466.5 L 893.0,466.5 L 894.0,466.5 L 895.0,466.5 L 896.0,466.5 L 897.0,466.5 L 898.0,466.5 L 899.0,466.5 L 900.0,466.5 L 901.0,466.5 L 901.5,467.0 L 902.0,467.5 L 903.0,467.5 L 904.0,467.5 L 905.0,467.5 L 906.0,467.5 L 907.0,467.5 L 908.0,467.5 L 909.0,467.5 L 909.5,468.0 L 910.0,468.5 L 911.0,468.5 L 912.0,468.5 L 913.0,468.5 L 914.0,468.5 L 915.0,468.5 L 916.0,468.5 L 916.5,469.0 L 917.0,469.5 L 918.0,469.5 L 919.0,469.5 L 920.0,469.5 L 921.0,469.5 L 922.0,469.5 L 922.5,470.0 L 923.0,470.5 L 924.0,470.5 L 925.0,470.5 L 926.0,470.5 L 927.0,470.5 L 928.0,470.5 L 928.5,471.0 L 929.0,471.5 L 930.0,471.5 L 931.0,471.5 L 932.0,471.5 L 933.0,471.5 L 933.5,472.0 L 934.0,472.5 L 935.0,472.5 L 936.0,472.5 L 937.0,472.5 L 938.0,472.5 L 938.5,473.0 L 939.0,473.5 L 940.0,473.5 L 941.0,473.5 L 942.0,473.5 L 942.5,474.0 L 943.0,474.5 L 944.0,474.5 L 945.0,474.5 L 946.0,474.5 L 946.5,475.0 L 947.0,475.5 L 948.0,475.5 L 949.0,475.5 L 950.0,475.5 L 950.5,476.0 L 951.0,476.5 L 952.0,476.5 L 953.0,476.5 L 953.5,477.0 L 954.0,477.5 L 955.0,477.5 L 956.0,477.5 L 957.0,477.5 L 957.5,478.0 L 958.0,478.5 L 959.0,478.5 L 960.0,478.5 L 960.5,479.0 L 961.0,479.5 L 962.0,479.5 L 963.0,479.5 L 963.5,480.0 L 964.0,480.5 L 965.0,480.5 L 966.0,480.5 L 967.0,480.5 L 967.5,481.0 L 968.0,481.5 L 969.0,481.5 L 969.5,482.0 L 970.0,482.5 L 971.0,482.5 L 972.0,482.5 L 972.5,483.0 L 973.0,483.5 L 974.0,483.5 L 975.0,483.5 L 976.0,483.5 L 976.5,484.0 L 977.0,484.5 L 978.0,484.5 L 979.0,484.5 L 979.5,485.0 L 980.0,485.5 L 981.0,485.5 L 982.0,485.5 L 982.5,486.0 L 983.0,486.5 L 984.0,486.5 L 984.5,487.0 L 985.0,487.5 L 986.0,487.5 L 987.0,487.5 L 987.5,488.0 L 988.0,488.5 L 989.0,488.5 L 990.0,488.5 L 990.5,489.0 L 991.0,489.5 L 992.0,489.5 L 992.5,490.0 L 993.0,490.5 L 994.0,490.5 L 995.0,490.5 L 995.5,491.0 L 996.0,491.5 L 997.0,491.5 L 997.5,492.0 L 998.0,492.5 L 998.5,493.0 L 999.0,493.5 L 1000.0,493.5 L 1001.0,493.5 L 1002.0,493.5 L 1003.0,493.5 L 1003.5,494.0 L 1004.0,494.5 L 1004.5,495.0 L 1005.0,495.5 L 1006.0,495.5 L 1006.5,496.0 L 1007.0,496.5 L 1008.0,496.5 L 1008.5,497.0 L 1009.0,497.5 L 1010.0,497.5 L 1010.5,498.0 L 1011.0,498.5 L 1012.0,498.5 L 1012.5,499.0 L 1013.0,499.5 L 1013.5,499.0 L 1014.0,498.5 L 1014.5,499.0 L 1015.0,499.5 L 1016.0,499.5 L 1016.5,500.0 L 1017.0,500.5 L 1017.5,501.0 L 1018.0,501.5 L 1019.0,501.5 L 1020.0,501.5 L 1020.5,502.0 L 1021.0,502.5 L 1022.0,502.5 L 1022.5,503.0 L 1023.0,503.5 L 1024.0,503.5 L 1024.5,504.0 L 1025.0,504.5 L 1026.0,504.5 L 1027.0,504.5 L 1027.5,505.0 L 1028.0,505.5 L 1029.0,505.5 L 1029.5,506.0 L 1030.0,506.5 L 1030.5,507.0 L 1031.0,507.5 L 1032.0,507.5 L 1033.0,507.5 L 1033.5,508.0 L 1034.0,508.5 L 1035.0,508.5 L 1036.0,508.5 L 1036.5,508.0 L 1037.0,507.5 L 1037.5,507.0 L 1037.5,506.0 L 1037.5,505.0 L 1037.5,504.0 L 1038.0,503.5 L 1038.5,503.0 L 1038.5,502.0 L 1038.5,501.0 L 1038.5,500.0 L 1038.5,499.0 L 1038.5,498.0 L 1038.5,497.0 L 1038.5,496.0 L 1038.5,495.0 L 1038.5,494.0 L 1038.5,493.0 L 1038.5,492.0 L 1038.5,491.0 L 1038.5,490.0 L 1038.5,489.0 L 1038.5,488.0 L 1038.5,487.0 L 1038.5,486.0 L 1038.5,485.0 L 1038.5,484.0 L 1038.5,483.0 L 1038.5,482.0 L 1038.5,481.0 L 1038.5,480.0 L 1038.5,479.0 L 1038.5,478.0 L 1038.5,477.0 L 1038.5,476.0 L 1038.5,475.0 L 1038.5,474.0 L 1038.5,473.0 L 1038.5,472.0 L 1038.5,471.0 L 1038.5,470.0 L 1038.5,469.0 L 1038.5,468.0 L 1038.5,467.0 L 1038.5,466.0 L 1038.5,465.0 L 1038.5,464.0 L 1038.5,463.0 L 1038.5,462.0 L 1038.5,461.0 L 1038.5,460.0 L 1038.5,459.0 L 1038.5,458.0 L 1038.5,457.0 L 1038.5,456.0 L 1038.5,455.0 L 1038.5,454.0 L 1039.0,453.5 L 1039.5,453.0 L 1039.5,452.0 L 1039.5,451.0 L 1039.5,450.0 L 1039.5,449.0 L 1039.5,448.0 L 1039.5,447.0 L 1039.5,446.0 L 1039.5,445.0 L 1039.5,444.0 L 1039.5,443.0 L 1039.5,442.0 L 1039.5,441.0 L 1039.5,440.0 L 1039.5,439.0 L 1039.5,438.0 L 1039.5,437.0 L 1039.5,436.0 L 1039.5,435.0 L 1040.0,434.5 L 1040.5,434.0 L 1040.5,433.0 L 1040.5,432.0 L 1040.5,431.0 L 1040.5,430.0 L 1040.5,429.0 L 1040.5,428.0 L 1040.5,427.0 L 1040.5,426.0 L 1040.5,425.0 L 1040.5,424.0 L 1040.5,423.0 L 1040.5,422.0 L 1040.5,421.0 L 1040.5,420.0 L 1041.0,419.5 L 1041.5,419.0 L 1041.5,418.0 L 1041.5,417.0 L 1041.5,416.0 L 1041.5,415.0 L 1041.5,414.0 L 1041.5,413.0 L 1041.5,412.0 L 1041.5,411.0 L 1041.5,410.0 L 1041.5,409.0 L 1042.0,408.5 L 1042.5,408.0 L 1042.5,407.0 L 1042.5,406.0 L 1042.5,405.0 L 1042.5,404.0 L 1042.5,403.0 L 1042.5,402.0 L 1042.5,401.0 L 1042.5,400.0 L 1042.5,399.0 L 1043.0,398.5 L 1043.5,398.0 L 1043.5,397.0 L 1043.5,396.0 L 1043.5,395.0 L 1043.5,394.0 L 1043.5,393.0 L 1043.5,392.0 L 1043.5,391.0 L 1043.5,390.0 L 1044.0,389.5 L 1044.5,389.0 L 1044.5,388.0 L 1044.5,387.0 L 1044.5,386.0 L 1044.5,385.0 L 1044.5,384.0 L 1044.5,383.0 L 1044.5,382.0 L 1044.5,381.0 L 1045.0,380.5 L 1045.5,380.0 L 1045.5,379.0 L 1045.5,378.0 L 1045.5,377.0 L 1045.5,376.0 L 1045.5,375.0 L 1045.5,374.0 L 1045.5,373.0 L 1046.0,372.5 L 1046.5,372.0 L 1046.5,371.0 L 1046.5,370.0 L 1046.5,369.0 L 1046.5,368.0 L 1046.5,367.0 L 1046.5,366.0 L 1047.0,365.5 L 1047.5,365.0 L 1047.5,364.0 L 1047.5,363.0 L 1047.5,362.0 L 1047.5,361.0 L 1047.5,360.0 L 1048.0,359.5 L 1048.5,359.0 L 1048.5,358.0 L 1048.5,357.0 L 1048.5,356.0 L 1048.5,355.0 L 1048.5,354.0 L 1049.0,353.5 L 1049.5,353.0 L 1049.5,352.0 L 1049.5,351.0 L 1049.5,350.0 L 1049.5,349.0 L 1049.5,348.0 L 1050.0,347.5 L 1050.5,347.0 L 1050.5,346.0 L 1050.5,345.0 L 1050.5,344.0 L 1050.5,343.0 L 1051.0,342.5 L 1051.5,342.0 L 1051.5,341.0 L 1051.5,340.0 L 1051.5,339.0 L 1051.5,338.0 L 1051.5,337.0 L 1052.0,336.5 L 1052.5,336.0 L 1052.5,335.0 L 1052.5,334.0 L 1052.5,333.0 L 1052.5,332.0 L 1053.0,331.5 L 1053.5,331.0 L 1053.5,330.0 L 1053.5,329.0 L 1053.5,328.0 L 1054.0,327.5 L 1054.5,327.0 L 1054.5,326.0 L 1054.5,325.0 L 1054.5,324.0 L 1055.0,323.5 L 1055.5,323.0 L 1055.5,322.0 L 1055.5,321.0 L 1055.5,320.0 L 1056.0,319.5 L 1056.5,319.0 L 1056.5,318.0 L 1056.5,317.0 L 1056.5,316.0 L 1057.0,315.5 L 1057.5,315.0 L 1057.5,314.0 L 1057.5,313.0 L 1057.5,312.0 L 1058.0,311.5 L 1058.5,311.0 L 1058.5,310.0 L 1058.0,309.5 L 1057.5,309.0 L 1058.0,308.5 L 1059.0,308.5 L 1059.5,308.0 L 1059.0,307.5 L 1058.5,307.0 L 1058.5,306.0 L 1059.0,305.5 L 1059.5,305.0 L 1059.5,304.0 L 1059.5,303.0 L 1060.0,302.5 L 1061.0,302.5 L 1061.5,302.0 L 1061.5,301.0 L 1061.5,300.0 L 1061.5,299.0 L 1062.0,298.5 L 1062.5,298.0 L 1062.0,297.5 L 1061.5,297.0 L 1062.0,296.5 L 1062.5,296.0 L 1062.5,295.0 L 1063.0,294.5 L 1063.5,294.0 L 1063.5,293.0 L 1063.5,292.0 L 1064.0,291.5 L 1064.5,291.0 L 1065.0,290.5 L 1065.5,290.0 L 1065.5,289.0 L 1065.5,288.0 L 1065.5,287.0 L 1066.0,286.5 L 1066.5,286.0 L 1066.5,285.0 L 1067.0,284.5 L 1067.5,284.0 L 1067.5,283.0 L 1068.0,282.5 L 1068.5,282.0 L 1068.5,281.0 L 1069.0,280.5 L 1069.5,280.0 L 1069.5,279.0 L 1069.5,278.0 L 1069.5,277.0 L 1070.0,276.5 L 1070.5,276.0 L 1071.0,275.5 L 1071.5,275.0 L 1072.0,274.5 L 1072.5,274.0 L 1072.5,273.0 L 1072.5,272.0 L 1073.0,271.5 L 1073.5,271.0 L 1074.0,270.5 L 1074.5,270.0 L 1074.5,269.0 L 1075.0,268.5 L 1075.5,268.0 L 1075.5,267.0 L 1076.0,266.5 L 1076.5,266.0 L 1076.5,265.0 L 1077.0,264.5 L 1077.5,264.0 L 1078.0,263.5 L 1078.5,263.0 L 1078.5,262.0 L 1079.0,261.5 L 1079.5,261.0 L 1080.0,260.5 L 1080.5,260.0 L 1081.0,259.5 L 1081.5,259.0 L 1081.5,258.0 L 1082.0,257.5 L 1082.5,257.0 L 1083.0,256.5 L 1083.5,256.0 L 1084.0,255.5 L 1084.5,255.0 L 1085.0,254.5 L 1085.5,254.0 L 1085.5,253.0 L 1086.0,252.5 L 1086.5,252.0 L 1087.0,251.5 L 1087.5,251.0 L 1088.0,250.5 L 1088.5,250.0 L 1089.0,249.5 L 1089.5,249.0 L 1090.0,248.5 L 1090.5,248.0 L 1091.0,247.5 L 1091.5,247.0 L 1092.0,246.5 L 1092.5,246.0 L 1093.0,245.5 L 1093.5,245.0 L 1094.0,244.5 L 1094.5,244.0 L 1095.0,243.5 L 1095.5,243.0 L 1096.0,242.5 L 1097.0,242.5 L 1097.5,242.0 L 1098.0,241.5 L 1098.5,241.0 L 1099.0,240.5 L 1099.5,240.0 L 1100.0,239.5 L 1101.0,239.5 L 1101.5,239.0 L 1102.0,238.5 L 1102.5,238.0 L 1103.0,237.5 L 1103.5,237.0 L 1104.0,236.5 L 1105.0,236.5 L 1105.5,236.0 L 1106.0,235.5 L 1107.0,235.5 L 1107.5,235.0 L 1108.0,234.5 L 1109.0,234.5 L 1109.5,234.0 L 1110.0,233.5 L 1110.5,233.0 L 1111.0,232.5 L 1112.0,232.5 L 1112.5,232.0 L 1113.0,231.5 L 1114.0,231.5 L 1114.5,231.0 L 1115.0,230.5 L 1116.0,230.5 L 1117.0,230.5 L 1117.5,230.0 L 1118.0,229.5 L 1119.0,229.5 L 1120.0,229.5 L 1120.5,229.0 L 1121.0,228.5 L 1122.0,228.5 L 1123.0,228.5 L 1123.5,228.0 L 1124.0,227.5 L 1125.0,227.5 L 1125.5,227.0 L 1126.0,226.5 L 1127.0,226.5 L 1128.0,226.5 L 1129.0,226.5 L 1129.5,226.0 L 1130.0,225.5 L 1131.0,225.5 L 1132.0,225.5 L 1132.5,225.0 L 1133.0,224.5 L 1134.0,224.5 L 1135.0,224.5 L 1136.0,224.5 L 1136.5,224.0 L 1137.0,223.5 L 1138.0,223.5 L 1139.0,223.5 L 1140.0,223.5 L 1140.5,224.0 L 1141.0,224.5 L 1142.0,224.5 L 1142.5,224.0 L 1142.5,223.0 L 1143.0,222.5 L 1144.0,222.5 L 1145.0,222.5 L 1146.0,222.5 L 1147.0,222.5 L 1147.5,223.0 L 1148.0,223.5 L 1148.5,223.0 L 1149.0,222.5 L 1150.0,222.5 L 1151.0,222.5 L 1152.0,222.5 L 1153.0,222.5 L 1154.0,222.5 L 1155.0,222.5 L 1156.0,222.5 L 1157.0,222.5 L 1157.5,222.0 L 1158.0,221.5 L 1159.0,221.5 L 1160.0,221.5 L 1161.0,221.5 L 1162.0,221.5 L 1163.0,221.5 L 1164.0,221.5 L 1165.0,221.5 L 1166.0,221.5 L 1167.0,221.5 L 1168.0,221.5 L 1169.0,221.5 L 1170.0,221.5 L 1171.0,221.5 L 1172.0,221.5 L 1173.0,221.5 L 1174.0,221.5 L 1175.0,221.5 L 1176.0,221.5 L 1177.0,221.5 L 1178.0,221.5 L 1179.0,221.5 L 1180.0,221.5 L 1181.0,221.5 L 1182.0,221.5 L 1183.0,221.5 L 1184.0,221.5 L 1185.0,221.5 L 1186.0,221.5 L 1187.0,221.5 L 1188.0,221.5 L 1189.0,221.5 L 1190.0,221.5 L 1191.0,221.5 L 1192.0,221.5 L 1193.0,221.5 L 1194.0,221.5 L 1195.0,221.5 L 1196.0,221.5 L 1197.0,221.5 L 1198.0,221.5 L 1199.0,221.5 L 1200.0,221.5 L 1201.0,221.5 L 1202.0,221.5 L 1203.0,221.5 L 1203.5,221.0 L 1204.0,220.5 L 1205.0,220.5 L 1206.0,220.5 L 1207.0,220.5 L 1208.0,220.5 L 1209.0,220.5 L 1210.0,220.5 L 1211.0,220.5 L 1212.0,220.5 L 1213.0,220.5 L 1214.0,220.5 L 1215.0,220.5 L 1216.0,220.5 L 1217.0,220.5 L 1218.0,220.5 L 1219.0,220.5 L 1220.0,220.5 L 1221.0,220.5 L 1222.0,220.5 L 1223.0,220.5 L 1224.0,220.5 L 1225.0,220.5 L 1226.0,220.5 L 1227.0,220.5 L 1228.0,220.5 L 1229.0,220.5 L 1230.0,220.5 L 1231.0,220.5 L 1232.0,220.5 L 1233.0,220.5 L 1234.0,220.5 L 1235.0,220.5 L 1236.0,220.5 L 1237.0,220.5 L 1238.0,220.5 L 1239.0,220.5 L 1240.0,220.5 L 1241.0,220.5 L 1242.0,220.5 L 1243.0,220.5 L 1244.0,220.5 L 1245.0,220.5 L 1246.0,220.5 L 1247.0,220.5 L 1248.0,220.5 L 1249.0,220.5 L 1250.0,220.5 L 1251.0,220.5 L 1252.0,220.5 L 1253.0,220.5 L 1254.0,220.5 L 1255.0,220.5 L 1256.0,220.5 L 1257.0,220.5 L 1258.0,220.5 L 1259.0,220.5 L 1260.0,220.5 L 1260.5,221.0 L 1261.0,221.5 L 1262.0,221.5 L 1263.0,221.5 L 1264.0,221.5 L 1265.0,221.5 L 1266.0,221.5 L 1267.0,221.5 L 1268.0,221.5 L 1269.0,221.5 L 1270.0,221.5 L 1271.0,221.5 L 1272.0,221.5 L 1273.0,221.5 L 1273.5,222.0 L 1274.0,222.5 L 1275.0,222.5 L 1276.0,222.5 L 1277.0,222.5 L 1278.0,222.5 L 1279.0,222.5 L 1280.0,222.5 L 1281.0,222.5 L 1282.0,222.5 L 1282.5,223.0 L 1283.0,223.5 L 1284.0,223.5 L 1285.0,223.5 L 1286.0,223.5 L 1287.0,223.5 L 1288.0,223.5 L 1288.5,224.0 L 1289.0,224.5 L 1290.0,224.5 L 1291.0,224.5 L 1292.0,224.5 L 1293.0,224.5 L 1293.5,225.0 L 1294.0,225.5 L 1294.5,225.0 L 1295.0,224.5 L 1295.5,225.0 L 1296.0,225.5 L 1297.0,225.5 L 1298.0,225.5 L 1298.5,226.0 L 1299.0,226.5 L 1300.0,226.5 L 1301.0,226.5 L 1302.0,226.5 L 1302.5,227.0 L 1303.0,227.5 L 1304.0,227.5 L 1304.5,228.0 L 1305.0,228.5 L 1305.5,229.0 L 1306.0,229.5 L 1307.0,229.5 L 1307.5,230.0 L 1308.0,230.5 L 1308.5,231.0 L 1309.0,231.5 L 1310.0,231.5 L 1311.0,231.5 L 1311.5,232.0 L 1312.0,232.5 L 1312.5,233.0 L 1313.0,233.5 L 1313.5,234.0 L 1314.0,234.5 L 1314.5,235.0 L 1315.0,235.5 L 1315.5,236.0 L 1315.5,237.0 L 1316.0,237.5 L 1316.5,238.0 L 1317.0,238.5 L 1317.5,239.0 L 1317.5,240.0 L 1318.0,240.5 L 1318.5,241.0 L 1318.5,242.0 L 1319.0,242.5 L 1319.5,243.0 L 1319.5,244.0 L 1319.5,245.0 L 1320.0,245.5 L 1320.5,246.0 L 1320.5,247.0 L 1320.5,248.0 L 1320.5,249.0 L 1320.5,250.0 L 1320.5,251.0 L 1321.0,251.5 L 1321.5,252.0 L 1321.5,253.0 L 1321.5,254.0 L 1321.5,255.0 L 1321.5,256.0 L 1321.5,257.0 L 1321.5,258.0 L 1321.5,259.0 L 1321.5,260.0 L 1321.5,261.0 L 1321.5,262.0 L 1321.5,263.0 L 1321.5,264.0 L 1321.5,265.0 L 1321.5,266.0 L 1321.5,267.0 L 1321.5,268.0 L 1321.5,269.0 L 1321.0,269.5 L 1320.5,270.0 L 1320.5,271.0 L 1320.5,272.0 L 1320.5,273.0 L 1320.5,274.0 L 1320.5,275.0 L 1320.5,276.0 L 1320.5,277.0 L 1320.0,277.5 L 1319.5,278.0 L 1319.5,279.0 L 1319.5,280.0 L 1319.5,281.0 L 1319.0,281.5 L 1318.5,282.0 L 1318.5,283.0 L 1318.5,284.0 L 1318.5,285.0 L 1318.5,286.0 L 1318.0,286.5 L 1317.5,287.0 L 1317.5,288.0 L 1317.5,289.0 L 1317.5,290.0 L 1317.0,290.5 L 1316.5,291.0 L 1316.5,292.0 L 1316.5,293.0 L 1316.5,294.0 L 1316.0,294.5 L 1315.5,295.0 L 1315.5,296.0 L 1315.0,296.5 L 1314.5,297.0 L 1314.5,298.0 L 1314.5,299.0 L 1314.5,300.0 L 1314.0,300.5 L 1313.5,301.0 L 1313.0,301.5 L 1312.5,302.0 L 1312.5,303.0 L 1312.5,304.0 L 1312.0,304.5 L 1311.5,305.0 L 1311.5,306.0 L 1311.0,306.5 L 1310.5,307.0 L 1310.5,308.0 L 1310.0,308.5 L 1309.5,309.0 L 1309.0,309.5 L 1308.5,310.0 L 1308.5,311.0 L 1308.0,311.5 L 1307.5,312.0 L 1307.0,312.5 L 1306.0,312.5 L 1305.5,313.0 L 1305.0,313.5 L 1304.0,313.5 L 1303.0,313.5 L 1302.5,314.0 L 1302.0,314.5 L 1301.0,314.5 L 1300.0,314.5 L 1299.0,314.5 L 1298.0,314.5 L 1297.0,314.5 L 1296.0,314.5 L 1295.0,314.5 L 1294.0,314.5 L 1293.0,314.5 L 1292.0,314.5 L 1291.0,314.5 L 1290.0,314.5 L 1289.5,314.0 L 1289.0,313.5 L 1288.0,313.5 L 1287.0,313.5 L 1286.0,313.5 L 1285.0,313.5 L 1284.0,313.5 L 1283.0,313.5 L 1282.0,313.5 L 1281.0,313.5 L 1280.0,313.5 L 1279.5,313.0 L 1279.0,312.5 L 1278.0,312.5 L 1277.0,312.5 L 1276.0,312.5 L 1275.0,312.5 L 1274.0,312.5 L 1273.0,312.5 L 1272.0,312.5 L 1271.0,312.5 L 1270.0,312.5 L 1269.5,312.0 L 1269.0,311.5 L 1268.0,311.5 L 1267.0,311.5 L 1266.0,311.5 L 1265.0,311.5 L 1264.0,311.5 L 1263.0,311.5 L 1262.0,311.5 L 1261.0,311.5 L 1260.0,311.5 L 1259.0,311.5 L 1258.5,311.0 L 1258.0,310.5 L 1257.0,310.5 L 1256.0,310.5 L 1255.0,310.5 L 1254.0,310.5 L 1253.0,310.5 L 1252.0,310.5 L 1251.0,310.5 L 1250.0,310.5 L 1249.0,310.5 L 1248.0,310.5 L 1247.0,310.5 L 1246.0,310.5 L 1245.0,310.5 L 1244.0,310.5 L 1243.0,310.5 L 1242.0,310.5 L 1241.0,310.5 L 1240.0,310.5 L 1239.0,310.5 L 1238.0,310.5 L 1237.0,310.5 L 1236.0,310.5 L 1235.0,310.5 L 1234.0,310.5 L 1233.0,310.5 L 1232.0,310.5 L 1231.0,310.5 L 1230.0,310.5 L 1229.0,310.5 L 1228.0,310.5 L 1227.0,310.5 L 1226.0,310.5 L 1225.0,310.5 L 1224.0,310.5 L 1223.0,310.5 L 1222.0,310.5 L 1221.0,310.5 L 1220.0,310.5 L 1219.0,310.5 L 1218.0,310.5 L 1217.5,311.0 L 1217.0,311.5 L 1216.0,311.5 L 1215.0,311.5 L 1214.0,311.5 L 1213.0,311.5 L 1212.0,311.5 L 1211.0,311.5 L 1210.0,311.5 L 1209.0,311.5 L 1208.5,312.0 L 1208.0,312.5 L 1207.0,312.5 L 1206.0,312.5 L 1205.0,312.5 L 1204.0,312.5 L 1203.0,312.5 L 1202.5,313.0 L 1202.0,313.5 L 1201.0,313.5 L 1200.0,313.5 L 1199.0,313.5 L 1198.0,313.5 L 1197.5,314.0 L 1197.0,314.5 L 1196.0,314.5 L 1195.0,314.5 L 1194.0,314.5 L 1193.5,315.0 L 1193.0,315.5 L 1192.0,315.5 L 1191.0,315.5 L 1190.0,315.5 L 1189.5,316.0 L 1189.0,316.5 L 1188.0,316.5 L 1187.0,316.5 L 1186.5,317.0 L 1186.0,317.5 L 1185.5,318.0 L 1185.0,318.5 L 1184.5,318.0 L 1184.0,317.5 L 1183.5,318.0 L 1183.0,318.5 L 1182.0,318.5 L 1181.0,318.5 L 1180.5,319.0 L 1180.0,319.5 L 1179.5,320.0 L 1179.0,320.5 L 1178.5,321.0 L 1178.0,321.5 L 1177.0,321.5 L 1176.0,321.5 L 1175.0,321.5 L 1174.5,322.0 L 1174.0,322.5 L 1173.5,323.0 L 1173.0,323.5 L 1172.0,323.5 L 1171.5,324.0 L 1171.0,324.5 L 1170.5,325.0 L 1170.0,325.5 L 1169.0,325.5 L 1168.5,326.0 L 1168.0,326.5 L 1167.5,327.0 L 1167.0,327.5 L 1166.0,327.5 L 1165.5,328.0 L 1165.0,328.5 L 1164.5,329.0 L 1164.0,329.5 L 1163.5,330.0 L 1163.0,330.5 L 1162.0,330.5 L 1161.0,330.5 L 1160.5,331.0 L 1160.0,331.5 L 1159.5,332.0 L 1159.5,333.0 L 1159.0,333.5 L 1158.5,334.0 L 1158.0,334.5 L 1157.5,335.0 L 1157.0,335.5 L 1156.5,336.0 L 1156.0,336.5 L 1155.5,337.0 L 1155.0,337.5 L 1154.5,338.0 L 1154.0,338.5 L 1153.5,339.0 L 1153.0,339.5 L 1152.5,340.0 L 1152.5,341.0 L 1152.0,341.5 L 1151.5,342.0 L 1151.0,342.5 L 1150.0,342.5 L 1149.5,343.0 L 1149.5,344.0 L 1149.5,345.0 L 1149.0,345.5 L 1148.0,345.5 L 1147.5,346.0 L 1147.5,347.0 L 1147.5,348.0 L 1147.0,348.5 L 1146.5,349.0 L 1146.0,349.5 L 1145.5,350.0 L 1145.5,351.0 L 1145.0,351.5 L 1144.5,352.0 L 1144.5,353.0 L 1144.0,353.5 L 1143.5,354.0 L 1143.5,355.0 L 1143.5,356.0 L 1143.0,356.5 L 1142.5,357.0 L 1142.0,357.5 L 1141.5,358.0 L 1141.5,359.0 L 1141.5,360.0 L 1141.5,361.0 L 1141.0,361.5 L 1140.5,362.0 L 1140.5,363.0 L 1140.5,364.0 L 1140.0,364.5 L 1139.5,365.0 L 1139.5,366.0 L 1139.5,367.0 L 1139.0,367.5 L 1138.5,368.0 L 1138.5,369.0 L 1138.5,370.0 L 1138.0,370.5 L 1137.5,371.0 L 1137.5,372.0 L 1137.5,373.0 L 1137.5,374.0 L 1137.0,374.5 L 1136.5,375.0 L 1136.5,376.0 L 1136.5,377.0 L 1136.5,378.0 L 1136.5,379.0 L 1136.0,379.5 L 1135.5,380.0 L 1135.5,381.0 L 1135.5,382.0 L 1135.5,383.0 L 1135.5,384.0 L 1135.0,384.5 L 1134.5,385.0 L 1134.5,386.0 L 1134.5,387.0 L 1134.5,388.0 L 1134.5,389.0 L 1134.5,390.0 L 1134.5,391.0 L 1134.0,391.5 L 1133.5,392.0 L 1133.5,393.0 L 1133.5,394.0 L 1133.5,395.0 L 1133.5,396.0 L 1133.5,397.0 L 1133.5,398.0 L 1133.5,399.0 L 1133.5,400.0 L 1133.5,401.0 L 1133.0,401.5 L 1132.5,402.0 L 1133.0,402.5 L 1133.5,403.0 L 1133.0,403.5 L 1132.5,404.0 L 1132.5,405.0 L 1132.5,406.0 L 1133.0,406.5 L 1133.5,407.0 L 1133.5,408.0 L 1133.5,409.0 L 1133.5,410.0 L 1133.5,411.0 L 1133.5,412.0 L 1133.5,413.0 L 1133.5,414.0 L 1133.5,415.0 L 1133.5,416.0 L 1133.5,417.0 L 1133.5,418.0 L 1133.5,419.0 L 1133.5,420.0 L 1133.5,421.0 L 1133.5,422.0 L 1133.5,423.0 L 1133.5,424.0 L 1133.5,425.0 L 1133.5,426.0 L 1133.5,427.0 L 1133.5,428.0 L 1133.5,429.0 L 1133.5,430.0 L 1133.5,431.0 L 1133.5,432.0 L 1133.5,433.0 L 1133.5,434.0 L 1133.5,435.0 L 1133.5,436.0 L 1133.5,437.0 L 1134.0,437.5 L 1134.5,438.0 L 1134.5,439.0 L 1134.5,440.0 L 1134.5,441.0 L 1134.5,442.0 L 1134.5,443.0 L 1134.5,444.0 L 1134.5,445.0 L 1134.5,446.0 L 1135.0,446.5 L 1135.5,447.0 L 1135.5,448.0 L 1135.5,449.0 L 1135.5,450.0 L 1135.5,451.0 L 1136.0,451.5 L 1136.5,452.0 L 1136.5,453.0 L 1136.5,454.0 L 1136.5,455.0 L 1137.0,455.5 L 1137.5,456.0 L 1137.5,457.0 L 1138.0,457.5 L 1138.5,458.0 L 1138.5,459.0 L 1139.0,459.5 L 1139.5,460.0 L 1139.5,461.0 L 1140.0,461.5 L 1140.5,462.0 L 1141.0,462.5 L 1141.5,463.0 L 1142.0,463.5 L 1143.0,463.5 L 1143.5,464.0 L 1144.0,464.5 L 1145.0,464.5 L 1146.0,464.5 L 1146.5,465.0 L 1147.0,465.5 L 1148.0,465.5 L 1149.0,465.5 L 1150.0,465.5 L 1151.0,465.5 L 1152.0,465.5 L 1153.0,465.5 L 1154.0,465.5 L 1155.0,465.5 L 1156.0,465.5 L 1156.5,465.0 L 1157.0,464.5 L 1158.0,464.5 L 1159.0,464.5 L 1159.5,464.0 L 1160.0,463.5 L 1161.0,463.5 L 1162.0,463.5 L 1162.5,463.0 L 1163.0,462.5 L 1164.0,462.5 L 1164.5,462.0 L 1165.0,461.5 L 1166.0,461.5 L 1167.0,461.5 L 1168.0,461.5 L 1168.5,461.0 L 1169.0,460.5 L 1170.0,460.5 L 1171.0,460.5 L 1171.5,460.0 L 1172.0,459.5 L 1172.5,459.0 L 1173.0,458.5 L 1174.0,458.5 L 1175.0,458.5 L 1176.0,458.5 L 1176.5,458.0 L 1177.0,457.5 L 1177.5,457.0 L 1178.0,456.5 L 1179.0,456.5 L 1180.0,456.5 L 1181.0,456.5 L 1181.5,456.0 L 1182.0,455.5 L 1183.0,455.5 L 1183.5,455.0 L 1184.0,454.5 L 1185.0,454.5 L 1186.0,454.5 L 1186.5,454.0 L 1187.0,453.5 L 1188.0,453.5 L 1188.5,453.0 L 1189.0,452.5 L 1190.0,452.5 L 1191.0,452.5 L 1191.5,452.0 L 1192.0,451.5 L 1193.0,451.5 L 1194.0,451.5 L 1194.5,451.0 L 1195.0,450.5 L 1196.0,450.5 L 1197.0,450.5 L 1197.5,450.0 L 1198.0,449.5 L 1199.0,449.5 L 1200.0,449.5 L 1200.5,449.0 L 1201.0,448.5 L 1202.0,448.5 L 1203.0,448.5 L 1203.5,448.0 L 1204.0,447.5 L 1205.0,447.5 L 1206.0,447.5 L 1206.5,447.0 L 1207.0,446.5 L 1208.0,446.5 L 1209.0,446.5 L 1209.5,446.0 L 1210.0,445.5 L 1211.0,445.5 L 1212.0,445.5 L 1212.5,445.0 L 1213.0,444.5 L 1214.0,444.5 L 1215.0,444.5 L 1215.5,444.0 L 1216.0,443.5 L 1217.0,443.5 L 1218.0,443.5 L 1219.0,443.5 L 1219.5,443.0 L 1220.0,442.5 L 1221.0,442.5 L 1222.0,442.5 L 1222.5,442.0 L 1223.0,441.5 L 1224.0,441.5 L 1225.0,441.5 L 1226.0,441.5 L 1226.5,441.0 L 1227.0,440.5 L 1228.0,440.5 L 1229.0,440.5 L 1230.0,440.5 L 1230.5,440.0 L 1231.0,439.5 L 1232.0,439.5 L 1233.0,439.5 L 1234.0,439.5 L 1235.0,439.5 L 1236.0,439.5 L 1236.5,439.0 L 1237.0,438.5 L 1238.0,438.5 L 1238.5,439.0 L 1239.0,439.5 L 1239.5,439.0 L 1240.0,438.5 L 1241.0,438.5 L 1242.0,438.5 L 1243.0,438.5 L 1244.0,438.5 L 1245.0,438.5 L 1245.5,438.0 L 1246.0,437.5 L 1247.0,437.5 L 1248.0,437.5 L 1249.0,437.5 L 1250.0,437.5 L 1251.0,437.5 L 1252.0,437.5 L 1253.0,437.5 L 1253.5,437.0 L 1254.0,436.5 L 1255.0,436.5 L 1256.0,436.5 L 1257.0,436.5 L 1258.0,436.5 L 1259.0,436.5 L 1260.0,436.5 L 1261.0,436.5 L 1262.0,436.5 L 1263.0,436.5 L 1264.0,436.5 L 1265.0,436.5 L 1266.0,436.5 L 1267.0,436.5 L 1268.0,436.5 L 1269.0,436.5 L 1270.0,436.5 L 1271.0,436.5 L 1272.0,436.5 L 1273.0,436.5 L 1273.5,437.0 L 1274.0,437.5 L 1275.0,437.5 L 1276.0,437.5 L 1277.0,437.5 L 1278.0,437.5 L 1278.5,438.0 L 1279.0,438.5 L 1280.0,438.5 L 1281.0,438.5 L 1281.5,439.0 L 1282.0,439.5 L 1283.0,439.5 L 1283.5,440.0 L 1284.0,440.5 L 1285.0,440.5 L 1285.5,441.0 L 1286.0,441.5 L 1287.0,441.5 L 1288.0,441.5 L 1288.5,442.0 L 1289.0,442.5 L 1289.5,443.0 L 1290.0,443.5 L 1290.5,444.0 L 1291.0,444.5 L 1292.0,444.5 L 1292.5,445.0 L 1293.0,445.5 L 1293.5,446.0 L 1294.0,446.5 L 1294.5,447.0 L 1295.0,447.5 L 1295.5,448.0 L 1296.0,448.5 L 1296.5,449.0 L 1297.0,449.5 L 1297.5,450.0 L 1298.0,450.5 L 1298.5,451.0 L 1299.0,451.5 L 1299.5,452.0 L 1299.5,453.0 L 1300.0,453.5 L 1300.5,454.0 L 1301.0,454.5 L 1301.5,455.0 L 1301.5,456.0 L 1302.0,456.5 L 1302.5,457.0 L 1303.0,457.5 L 1303.5,458.0 L 1303.5,459.0 L 1303.5,460.0 L 1304.0,460.5 L 1304.5,461.0 L 1304.5,462.0 L 1305.0,462.5 L 1305.5,463.0 L 1305.5,464.0 L 1306.0,464.5 L 1306.5,465.0 L 1306.5,466.0 L 1306.5,467.0 L 1307.0,467.5 L 1307.5,468.0 L 1307.5,469.0 L 1307.5,470.0 L 1307.5,471.0 L 1308.0,471.5 L 1308.5,472.0 L 1308.5,473.0 L 1308.5,474.0 L 1308.5,475.0 L 1308.5,476.0 L 1309.0,476.5 L 1309.5,477.0 L 1309.5,478.0 L 1309.5,479.0 L 1309.5,480.0 L 1309.5,481.0 L 1309.5,482.0 L 1309.5,483.0 L 1309.5,484.0 L 1310.0,484.5 L 1310.5,485.0 L 1310.5,486.0 L 1310.5,487.0 L 1310.5,488.0 L 1310.5,489.0 L 1310.5,490.0 L 1310.5,491.0 L 1310.5,492.0 L 1310.5,493.0 L 1310.5,494.0 L 1310.5,495.0 L 1310.5,496.0 L 1310.5,497.0 L 1310.5,498.0 L 1310.5,499.0 L 1310.5,500.0 L 1310.5,501.0 L 1310.5,502.0 L 1310.5,503.0 L 1310.5,504.0 L 1310.5,505.0 L 1310.5,506.0 L 1310.5,507.0 L 1310.5,508.0 L 1310.0,508.5 L 1309.5,509.0 L 1309.5,510.0 L 1309.5,511.0 L 1309.5,512.0 L 1309.5,513.0 L 1309.5,514.0 L 1309.5,515.0 L 1309.5,516.0 L 1309.5,517.0 L 1309.5,518.0 L 1309.0,518.5 L 1308.5,519.0 L 1308.5,520.0 L 1308.5,521.0 L 1308.5,522.0 L 1308.5,523.0 L 1308.5,524.0 L 1308.5,525.0 L 1308.0,525.5 L 1307.5,526.0 L 1307.5,527.0 L 1307.5,528.0 L 1307.5,529.0 L 1307.5,530.0 L 1307.0,530.5 L 1306.5,531.0 L 1306.5,532.0 L 1306.5,533.0 L 1306.5,534.0 L 1306.5,535.0 L 1306.0,535.5 L 1305.5,536.0 L 1305.5,537.0 L 1305.5,538.0 L 1305.5,539.0 L 1305.0,539.5 L 1304.5,540.0 L 1304.5,541.0 L 1304.5,542.0 L 1304.5,543.0 L 1304.0,543.5 L 1303.5,544.0 L 1303.5,545.0 L 1303.5,546.0 L 1303.0,546.5 L 1302.5,547.0 L 1302.5,548.0 L 1302.5,549.0 L 1302.0,549.5 L 1301.5,550.0 L 1301.5,551.0 L 1301.0,551.5 L 1300.5,552.0 L 1300.5,553.0 L 1300.5,554.0 L 1300.0,554.5 L 1299.5,555.0 L 1299.0,555.5 L 1298.5,556.0 L 1298.5,557.0 L 1298.0,557.5 L 1297.5,558.0 L 1297.5,559.0 L 1297.0,559.5 L 1296.5,560.0 L 1296.0,560.5 L 1295.5,561.0 L 1295.5,562.0 L 1295.0,562.5 L 1294.5,563.0 L 1294.0,563.5 L 1293.5,564.0 L 1293.0,564.5 L 1292.5,565.0 L 1292.0,565.5 L 1291.5,566.0 L 1291.0,566.5 L 1290.0,566.5 L 1289.0,566.5 L 1288.5,567.0 L 1288.0,567.5 L 1287.0,567.5 L 1286.0,567.5 L 1285.0,567.5 L 1284.0,567.5 L 1283.0,567.5 L 1282.5,567.0 L 1282.0,566.5 L 1281.0,566.5 L 1280.0,566.5 L 1279.5,566.0 L 1279.0,565.5 L 1278.0,565.5 L 1277.5,565.0 L 1277.0,564.5 L 1276.5,564.0 L 1276.0,563.5 L 1275.5,563.0 L 1275.0,562.5 L 1274.5,562.0 L 1274.0,561.5 L 1273.5,561.0 L 1273.0,560.5 L 1272.5,560.0 L 1272.5,559.0 L 1272.0,558.5 L 1271.5,558.0 L 1271.0,557.5 L 1270.5,557.0 L 1270.5,556.0 L 1270.0,555.5 L 1269.5,555.0 L 1269.0,554.5 L 1268.5,554.0 L 1268.5,553.0 L 1268.5,552.0 L 1268.0,551.5 L 1267.5,551.0 L 1267.0,550.5 L 1266.5,550.0 L 1266.5,549.0 L 1266.0,548.5 L 1265.5,548.0 L 1265.0,547.5 L 1264.5,547.0 L 1264.0,546.5 L 1263.5,546.0 L 1263.5,545.0 L 1263.0,544.5 L 1262.5,544.0 L 1262.5,543.0 L 1262.0,542.5 L 1261.0,542.5 L 1260.5,542.0 L 1260.0,541.5 L 1259.5,541.0 L 1259.0,540.5 L 1258.5,540.0 L 1258.0,539.5 L 1257.5,539.0 L 1257.5,538.0 L 1257.0,537.5 L 1256.5,537.0 L 1256.0,536.5 L 1255.5,536.0 L 1255.0,535.5 L 1254.0,535.5 L 1253.0,535.5 L 1252.5,535.0 L 1252.0,534.5 L 1251.5,534.0 L 1251.0,533.5 L 1250.0,533.5 L 1249.5,533.0 L 1249.0,532.5 L 1248.5,532.0 L 1248.0,531.5 L 1247.5,531.0 L 1247.0,530.5 L 1246.0,530.5 L 1245.5,530.0 L 1245.0,529.5 L 1244.0,529.5 L 1243.5,529.0 L 1243.0,528.5 L 1242.5,528.0 L 1242.0,527.5 L 1241.0,527.5 L 1240.0,527.5 L 1239.5,527.0 L 1239.0,526.5 L 1238.0,526.5 L 1237.0,526.5 L 1236.5,526.0 L 1236.0,525.5 L 1235.0,525.5 L 1234.0,525.5 L 1233.0,525.5 L 1232.5,525.0 L 1232.0,524.5 L 1231.0,524.5 L 1230.0,524.5 L 1229.0,524.5 L 1228.5,524.0 L 1228.0,523.5 L 1227.0,523.5 L 1226.0,523.5 L 1225.0,523.5 L 1224.0,523.5 L 1223.5,523.0 L 1223.0,522.5 L 1222.0,522.5 L 1221.0,522.5 L 1220.0,522.5 L 1219.0,522.5 L 1218.0,522.5 L 1217.0,522.5 L 1216.0,522.5 L 1215.0,522.5 L 1214.5,522.0 L 1214.0,521.5 L 1213.0,521.5 L 1212.0,521.5 L 1211.0,521.5 L 1210.0,521.5 L 1209.0,521.5 L 1208.0,521.5 L 1207.0,521.5 L 1206.0,521.5 L 1205.0,521.5 L 1204.0,521.5 L 1203.0,521.5 L 1202.0,521.5 L 1201.0,521.5 L 1200.0,521.5 L 1199.0,521.5 L 1198.0,521.5 L 1197.5,522.0 L 1197.0,522.5 L 1196.0,522.5 L 1195.0,522.5 L 1194.0,522.5 L 1193.0,522.5 L 1192.0,522.5 L 1191.0,522.5 L 1190.0,522.5 L 1189.0,522.5 L 1188.5,523.0 L 1188.0,523.5 L 1187.0,523.5 L 1186.0,523.5 L 1185.0,523.5 L 1184.0,523.5 L 1183.0,523.5 L 1182.0,523.5 L 1181.5,524.0 L 1181.0,524.5 L 1180.0,524.5 L 1179.0,524.5 L 1178.0,524.5 L 1177.0,524.5 L 1176.5,525.0 L 1176.0,525.5 L 1175.0,525.5 L 1174.0,525.5 L 1173.0,525.5 L 1172.5,526.0 L 1172.0,526.5 L 1171.0,526.5 L 1170.0,526.5 L 1169.0,526.5 L 1168.5,527.0 L 1168.0,527.5 L 1167.0,527.5 L 1166.0,527.5 L 1165.0,527.5 L 1164.5,528.0 L 1164.0,528.5 L 1163.0,528.5 L 1162.0,528.5 L 1161.5,529.0 L 1161.5,530.0 L 1161.5,531.0 L 1161.5,532.0 L 1161.5,533.0 L 1162.0,533.5 L 1162.5,534.0 L 1162.5,535.0 L 1162.5,536.0 L 1162.5,537.0 L 1162.5,538.0 L 1163.0,538.5 L 1163.5,539.0 L 1163.5,540.0 L 1163.5,541.0 L 1163.5,542.0 L 1163.5,543.0 L 1163.5,544.0 L 1164.0,544.5 L 1164.5,545.0 L 1164.5,546.0 L 1164.5,547.0 L 1164.5,548.0 L 1164.5,549.0 L 1164.5,550.0 L 1165.0,550.5 L 1165.5,551.0 L 1165.5,552.0 L 1165.5,553.0 L 1165.5,554.0 L 1165.5,555.0 L 1165.5,556.0 L 1166.0,556.5 L 1166.5,557.0 L 1166.5,558.0 L 1166.5,559.0 L 1166.5,560.0 L 1166.5,561.0 L 1166.5,562.0 L 1167.0,562.5 L 1167.5,563.0 L 1167.5,564.0 L 1167.5,565.0 L 1167.5,566.0 L 1167.5,567.0 L 1167.5,568.0 L 1168.0,568.5 L 1168.5,569.0 L 1168.5,570.0 L 1168.5,571.0 L 1168.5,572.0 L 1168.5,573.0 L 1168.5,574.0 L 1168.5,575.0 L 1169.0,575.5 L 1169.5,576.0 L 1169.5,577.0 L 1169.5,578.0 L 1169.5,579.0 L 1169.5,580.0 L 1169.5,581.0 L 1169.5,582.0 L 1169.5,583.0 L 1170.0,583.5 L 1170.5,584.0 L 1170.5,585.0 L 1170.5,586.0 L 1170.5,587.0 L 1170.5,588.0 L 1170.5,589.0 L 1170.5,590.0 L 1171.0,590.5 L 1171.5,591.0 L 1171.5,592.0 L 1171.5,593.0 L 1171.5,594.0 L 1171.5,595.0 L 1171.5,596.0 L 1171.5,597.0 L 1171.5,598.0 L 1172.0,598.5 L 1172.5,599.0 L 1172.5,600.0 L 1172.5,601.0 L 1172.5,602.0 L 1172.5,603.0 L 1172.5,604.0 L 1172.5,605.0 L 1172.5,606.0 L 1173.0,606.5 L 1173.5,607.0 L 1173.5,608.0 L 1173.5,609.0 L 1173.5,610.0 L 1173.5,611.0 L 1174.0,611.5 L 1174.5,612.0 L 1174.5,613.0 L 1174.5,614.0 L 1174.5,615.0 L 1174.5,616.0 L 1174.5,617.0 L 1174.5,618.0 L 1174.5,619.0 L 1174.5,620.0 L 1174.5,621.0 L 1174.5,622.0 L 1174.5,623.0 L 1174.5,624.0 L 1174.5,625.0 L 1174.5,626.0 L 1175.0,626.5 L 1175.5,627.0 L 1175.5,628.0 L 1175.5,629.0 L 1175.5,630.0 L 1175.5,631.0 L 1175.5,632.0 L 1175.5,633.0 L 1175.5,634.0 L 1175.5,635.0 L 1175.5,636.0 L 1175.5,637.0 L 1176.0,637.5 L 1176.5,638.0 L 1176.5,639.0 L 1176.5,640.0 L 1176.5,641.0 L 1176.5,642.0 L 1176.5,643.0 L 1176.5,644.0 L 1176.5,645.0 L 1176.5,646.0 L 1176.5,647.0 L 1176.5,648.0 L 1176.5,649.0 L 1176.5,650.0 L 1177.0,650.5 L 1177.5,651.0 L 1177.5,652.0 L 1177.5,653.0 L 1177.5,654.0 L 1177.5,655.0 L 1177.5,656.0 L 1177.5,657.0 L 1177.5,658.0 L 1177.5,659.0 L 1177.5,660.0 L 1177.5,661.0 L 1177.5,662.0 L 1178.0,662.5 L 1178.5,663.0 L 1178.0,663.5 L 1177.5,664.0 L 1178.0,664.5 L 1178.5,665.0 L 1178.5,666.0 L 1178.5,667.0 L 1178.5,668.0 L 1178.5,669.0 L 1178.5,670.0 L 1178.5,671.0 L 1178.5,672.0 L 1178.5,673.0 L 1178.5,674.0 L 1178.5,675.0 L 1178.5,676.0 L 1178.5,677.0 L 1178.5,678.0 L 1178.5,679.0 L 1178.5,680.0 L 1178.5,681.0 L 1178.5,682.0 L 1178.5,683.0 L 1178.5,684.0 L 1179.0,684.5 L 1179.5,685.0 L 1179.5,686.0 L 1179.5,687.0 L 1179.5,688.0 L 1179.5,689.0 L 1179.5,690.0 L 1179.5,691.0 L 1179.5,692.0 L 1179.5,693.0 L 1179.5,694.0 L 1179.5,695.0 L 1179.5,696.0 L 1179.5,697.0 L 1179.5,698.0 L 1179.5,699.0 L 1179.5,700.0 L 1179.5,701.0 L 1179.5,702.0 L 1179.5,703.0 L 1179.5,704.0 L 1179.5,705.0 L 1179.5,706.0 L 1179.5,707.0 L 1179.5,708.0 L 1179.5,709.0 L 1179.5,710.0 L 1179.5,711.0 L 1179.5,712.0 L 1179.5,713.0 L 1179.5,714.0 L 1179.5,715.0 L 1179.5,716.0 L 1179.5,717.0 L 1179.5,718.0 L 1179.5,719.0 L 1179.5,720.0 L 1179.5,721.0 L 1179.5,722.0 L 1179.5,723.0 L 1179.5,724.0 L 1179.5,725.0 L 1179.5,726.0 L 1179.5,727.0 L 1179.5,728.0 L 1179.5,729.0 L 1179.5,730.0 L 1179.5,731.0 L 1179.5,732.0 L 1179.5,733.0 L 1179.5,734.0 L 1179.5,735.0 L 1179.5,736.0 L 1179.5,737.0 L 1179.5,738.0 L 1179.5,739.0 L 1179.5,740.0 L 1179.5,741.0 L 1179.5,742.0 L 1179.5,743.0 L 1179.5,744.0 L 1179.5,745.0 L 1179.5,746.0 L 1180.0,746.5 L 1180.5,747.0 L 1180.5,748.0 L 1180.5,749.0 L 1180.5,750.0 L 1180.5,751.0 L 1180.5,752.0 L 1180.5,753.0 L 1180.5,754.0 L 1180.5,755.0 L 1180.5,756.0 L 1181.0,756.5 L 1181.5,757.0 L 1181.0,757.5 L 1180.5,758.0 L 1180.5,759.0 L 1181.0,759.5 L 1181.5,760.0 L 1181.5,761.0 L 1181.5,762.0 L 1181.5,763.0 L 1181.5,764.0 L 1181.5,765.0 L 1181.5,766.0 L 1181.5,767.0 L 1181.5,768.0 L 1182.0,768.5 L 1182.5,769.0 L 1182.5,770.0 L 1182.5,771.0 L 1182.5,772.0 L 1182.5,773.0 L 1182.5,774.0 L 1182.5,775.0 L 1183.0,775.5 L 1183.5,776.0 L 1183.5,777.0 L 1183.5,778.0 L 1183.5,779.0 L 1183.5,780.0 L 1183.5,781.0 L 1183.0,781.5 L 1182.5,782.0 L 1182.0,782.5 L 1181.5,783.0 L 1181.5,784.0 L 1181.0,784.5 Z M 485.5,443.0 L 486.0,442.5 L 486.5,442.0 L 487.0,441.5 L 488.0,441.5 L 489.0,441.5 L 490.0,441.5 L 491.0,441.5 L 492.0,441.5 L 493.0,441.5 L 494.0,441.5 L 494.5,441.0 L 495.0,440.5 L 496.0,440.5 L 497.0,440.5 L 497.5,440.0 L 498.0,439.5 L 499.0,439.5 L 499.5,439.0 L 500.0,438.5 L 501.0,438.5 L 501.5,438.0 L 502.0,437.5 L 503.0,437.5 L 503.5,437.0 L 504.0,436.5 L 504.5,436.0 L 505.0,435.5 L 505.5,435.0 L 506.0,434.5 L 507.0,434.5 L 507.5,434.0 L 508.0,433.5 L 508.5,433.0 L 509.0,432.5 L 509.5,432.0 L 510.0,431.5 L 510.5,431.0 L 511.0,430.5 L 511.5,430.0 L 512.0,429.5 L 512.5,429.0 L 513.0,428.5 L 513.5,428.0 L 513.5,427.0 L 514.0,426.5 L 514.5,426.0 L 515.0,425.5 L 515.5,425.0 L 515.5,424.0 L 516.0,423.5 L 516.5,423.0 L 517.0,422.5 L 517.5,422.0 L 518.0,421.5 L 518.5,421.0 L 518.5,420.0 L 519.0,419.5 L 519.5,419.0 L 519.5,418.0 L 519.5,417.0 L 520.0,416.5 L 520.5,416.0 L 520.5,415.0 L 521.0,414.5 L 521.5,414.0 L 521.5,413.0 L 521.5,412.0 L 522.0,411.5 L 522.5,411.0 L 522.5,410.0 L 522.5,409.0 L 523.0,408.5 L 523.5,408.0 L 523.5,407.0 L 523.5,406.0 L 524.0,405.5 L 524.5,405.0 L 524.5,404.0 L 524.5,403.0 L 525.0,402.5 L 525.5,402.0 L 525.5,401.0 L 525.5,400.0 L 526.0,399.5 L 526.5,399.0 L 526.5,398.0 L 526.5,397.0 L 526.5,396.0 L 527.0,395.5 L 527.5,395.0 L 527.5,394.0 L 527.5,393.0 L 527.5,392.0 L 528.0,391.5 L 528.5,391.0 L 528.5,390.0 L 528.5,389.0 L 528.5,388.0 L 528.5,387.0 L 529.0,386.5 L 529.5,386.0 L 529.5,385.0 L 529.5,384.0 L 529.5,383.0 L 529.5,382.0 L 529.5,381.0 L 529.5,380.0 L 529.5,379.0 L 530.0,378.5 L 530.5,378.0 L 530.5,377.0 L 530.5,376.0 L 530.5,375.0 L 530.5,374.0 L 530.5,373.0 L 530.5,372.0 L 530.5,371.0 L 530.5,370.0 L 530.5,369.0 L 530.5,368.0 L 530.5,367.0 L 530.5,366.0 L 530.5,365.0 L 530.0,364.5 L 529.5,364.0 L 529.5,363.0 L 529.5,362.0 L 529.5,361.0 L 529.5,360.0 L 529.5,359.0 L 529.5,358.0 L 529.5,357.0 L 529.0,356.5 L 528.5,356.0 L 528.5,355.0 L 528.5,354.0 L 528.5,353.0 L 528.0,352.5 L 527.5,352.0 L 528.0,351.5 L 528.5,351.0 L 528.0,350.5 L 527.5,350.0 L 527.0,349.5 L 526.5,349.0 L 526.5,348.0 L 526.5,347.0 L 526.0,346.5 L 525.5,346.0 L 525.5,345.0 L 525.5,344.0 L 525.0,343.5 L 524.5,343.0 L 524.5,342.0 L 524.0,341.5 L 523.5,341.0 L 523.5,340.0 L 523.5,339.0 L 523.0,338.5 L 522.0,338.5 L 521.5,338.0 L 521.5,337.0 L 521.5,336.0 L 521.0,335.5 L 520.5,335.0 L 520.0,334.5 L 519.5,334.0 L 519.5,333.0 L 519.0,332.5 L 518.5,332.0 L 518.0,331.5 L 517.0,331.5 L 516.5,331.0 L 516.5,330.0 L 516.5,329.0 L 516.0,328.5 L 515.5,328.0 L 515.0,327.5 L 514.5,327.0 L 514.0,326.5 L 513.5,326.0 L 513.0,325.5 L 512.5,325.0 L 512.0,324.5 L 511.5,324.0 L 511.0,323.5 L 510.5,323.0 L 510.0,322.5 L 509.5,322.0 L 509.0,321.5 L 508.0,321.5 L 507.0,321.5 L 506.5,321.0 L 506.5,320.0 L 506.0,319.5 L 505.5,319.0 L 505.0,318.5 L 504.0,318.5 L 503.5,318.0 L 503.0,317.5 L 502.5,317.0 L 502.0,316.5 L 501.0,316.5 L 500.5,316.0 L 500.0,315.5 L 499.5,315.0 L 499.0,314.5 L 498.0,314.5 L 497.5,314.0 L 497.0,313.5 L 496.0,313.5 L 495.0,313.5 L 494.5,313.0 L 494.0,312.5 L 493.5,312.0 L 493.0,311.5 L 492.0,311.5 L 491.0,311.5 L 490.5,311.0 L 490.0,310.5 L 489.0,310.5 L 488.0,310.5 L 487.5,310.0 L 487.0,309.5 L 486.0,309.5 L 485.5,309.0 L 485.0,308.5 L 484.0,308.5 L 483.0,308.5 L 482.0,308.5 L 481.5,308.0 L 481.0,307.5 L 480.0,307.5 L 479.0,307.5 L 478.0,307.5 L 477.5,307.0 L 477.0,306.5 L 476.0,306.5 L 475.0,306.5 L 474.0,306.5 L 473.0,306.5 L 472.5,306.0 L 472.0,305.5 L 471.0,305.5 L 470.0,305.5 L 469.0,305.5 L 468.0,305.5 L 467.0,305.5 L 466.0,305.5 L 465.0,305.5 L 464.0,305.5 L 463.0,305.5 L 462.5,305.0 L 462.0,304.5 L 461.5,304.0 L 461.0,303.5 L 460.5,304.0 L 460.0,304.5 L 459.0,304.5 L 458.0,304.5 L 457.0,304.5 L 456.5,304.0 L 456.0,303.5 L 455.5,304.0 L 455.0,304.5 L 454.0,304.5 L 453.0,304.5 L 452.5,305.0 L 452.0,305.5 L 451.0,305.5 L 450.0,305.5 L 449.0,305.5 L 448.0,305.5 L 447.0,305.5 L 446.0,305.5 L 445.5,306.0 L 445.0,306.5 L 444.0,306.5 L 443.0,306.5 L 442.0,306.5 L 441.0,306.5 L 440.5,307.0 L 440.0,307.5 L 439.0,307.5 L 438.0,307.5 L 437.0,307.5 L 436.5,308.0 L 436.0,308.5 L 435.0,308.5 L 434.0,308.5 L 433.5,309.0 L 433.0,309.5 L 432.0,309.5 L 431.0,309.5 L 430.0,309.5 L 429.5,310.0 L 429.0,310.5 L 428.0,310.5 L 427.5,311.0 L 427.0,311.5 L 426.0,311.5 L 425.5,312.0 L 425.0,312.5 L 424.0,312.5 L 423.0,312.5 L 422.5,313.0 L 422.0,313.5 L 421.0,313.5 L 420.5,314.0 L 420.0,314.5 L 419.5,315.0 L 419.0,315.5 L 418.0,315.5 L 417.5,316.0 L 417.0,316.5 L 416.0,316.5 L 415.5,317.0 L 415.0,317.5 L 414.0,317.5 L 413.5,318.0 L 413.0,318.5 L 412.5,319.0 L 412.0,319.5 L 411.5,320.0 L 411.0,320.5 L 410.0,320.5 L 409.5,321.0 L 409.0,321.5 L 408.5,322.0 L 408.0,322.5 L 407.0,322.5 L 406.5,323.0 L 406.0,323.5 L 405.5,324.0 L 405.0,324.5 L 404.5,325.0 L 404.0,325.5 L 403.5,326.0 L 403.5,327.0 L 403.0,327.5 L 402.0,327.5 L 401.0,327.5 L 400.5,328.0 L 400.0,328.5 L 399.5,329.0 L 399.0,329.5 L 398.5,330.0 L 398.0,330.5 L 397.5,331.0 L 397.0,331.5 L 396.5,332.0 L 396.0,332.5 L 395.5,333.0 L 395.0,333.5 L 394.5,334.0 L 394.0,334.5 L 393.5,335.0 L 393.0,335.5 L 392.5,336.0 L 392.0,336.5 L 391.5,337.0 L 391.0,337.5 L 390.5,338.0 L 390.0,338.5 L 389.5,339.0 L 389.5,340.0 L 389.0,340.5 L 388.5,341.0 L 388.0,341.5 L 387.5,342.0 L 387.0,342.5 L 386.5,343.0 L 386.0,343.5 L 385.5,344.0 L 385.5,345.0 L 385.0,345.5 L 384.5,346.0 L 384.0,346.5 L 383.5,347.0 L 383.0,347.5 L 382.5,348.0 L 382.5,349.0 L 382.5,350.0 L 382.0,350.5 L 381.0,350.5 L 380.5,351.0 L 380.5,352.0 L 380.0,352.5 L 379.5,353.0 L 379.0,353.5 L 378.5,354.0 L 378.5,355.0 L 378.5,356.0 L 378.0,356.5 L 377.5,357.0 L 377.0,357.5 L 376.5,358.0 L 376.5,359.0 L 376.0,359.5 L 375.0,359.5 L 374.5,360.0 L 374.5,361.0 L 374.0,361.5 L 373.5,362.0 L 373.5,363.0 L 373.0,363.5 L 372.5,364.0 L 372.5,365.0 L 372.0,365.5 L 371.5,366.0 L 371.5,367.0 L 371.0,367.5 L 370.5,368.0 L 370.5,369.0 L 370.0,369.5 L 369.5,370.0 L 369.5,371.0 L 369.0,371.5 L 368.5,372.0 L 368.5,373.0 L 368.0,373.5 L 367.5,374.0 L 367.5,375.0 L 367.0,375.5 L 366.5,376.0 L 366.5,377.0 L 366.5,378.0 L 366.0,378.5 L 365.5,379.0 L 365.5,380.0 L 365.0,380.5 L 364.5,381.0 L 364.5,382.0 L 364.5,383.0 L 364.0,383.5 L 363.5,384.0 L 363.5,385.0 L 363.5,386.0 L 363.0,386.5 L 362.5,387.0 L 362.5,388.0 L 362.5,389.0 L 362.0,389.5 L 361.5,390.0 L 361.5,391.0 L 361.5,392.0 L 361.0,392.5 L 360.5,393.0 L 360.5,394.0 L 360.5,395.0 L 360.0,395.5 L 359.5,396.0 L 359.5,397.0 L 359.5,398.0 L 359.0,398.5 L 358.5,399.0 L 358.5,400.0 L 358.5,401.0 L 358.5,402.0 L 358.0,402.5 L 357.5,403.0 L 357.5,404.0 L 357.5,405.0 L 357.5,406.0 L 357.0,406.5 L 356.5,407.0 L 356.5,408.0 L 356.5,409.0 L 356.5,410.0 L 356.0,410.5 L 355.5,411.0 L 355.5,412.0 L 355.5,413.0 L 355.5,414.0 L 355.0,414.5 L 354.5,415.0 L 354.5,416.0 L 354.5,417.0 L 354.5,418.0 L 354.5,419.0 L 354.0,419.5 L 353.5,420.0 L 353.5,421.0 L 353.5,422.0 L 353.5,423.0 L 353.5,424.0 L 353.5,425.0 L 353.0,425.5 L 352.5,426.0 L 352.5,427.0 L 352.5,428.0 L 352.5,429.0 L 352.5,430.0 L 352.5,431.0 L 352.5,432.0 L 352.5,433.0 L 352.5,434.0 L 352.5,435.0 L 352.5,436.0 L 353.0,436.5 L 353.5,437.0 L 354.0,437.5 L 354.5,438.0 L 354.5,439.0 L 355.0,439.5 L 356.0,439.5 L 357.0,439.5 L 358.0,439.5 L 358.5,440.0 L 359.0,440.5 L 360.0,440.5 L 361.0,440.5 L 362.0,440.5 L 363.0,440.5 L 364.0,440.5 L 365.0,440.5 L 366.0,440.5 L 367.0,440.5 L 368.0,440.5 L 369.0,440.5 L 369.5,441.0 L 370.0,441.5 L 371.0,441.5 L 372.0,441.5 L 373.0,441.5 L 374.0,441.5 L 375.0,441.5 L 376.0,441.5 L 377.0,441.5 L 378.0,441.5 L 379.0,441.5 L 380.0,441.5 L 381.0,441.5 L 382.0,441.5 L 383.0,441.5 L 384.0,441.5 L 385.0,441.5 L 386.0,441.5 L 387.0,441.5 L 388.0,441.5 L 389.0,441.5 L 390.0,441.5 L 391.0,441.5 L 392.0,441.5 L 393.0,441.5 L 394.0,441.5 L 395.0,441.5 L 396.0,441.5 L 397.0,441.5 L 398.0,441.5 L 399.0,441.5 L 400.0,441.5 L 401.0,441.5 L 402.0,441.5 L 403.0,441.5 L 404.0,441.5 L 405.0,441.5 L 406.0,441.5 L 407.0,441.5 L 408.0,441.5 L 409.0,441.5 L 410.0,441.5 L 411.0,441.5 L 412.0,441.5 L 413.0,441.5 L 414.0,441.5 L 415.0,441.5 L 416.0,441.5 L 417.0,441.5 L 418.0,441.5 L 419.0,441.5 L 420.0,441.5 L 421.0,441.5 L 422.0,441.5 L 423.0,441.5 L 424.0,441.5 L 425.0,441.5 L 426.0,441.5 L 427.0,441.5 L 428.0,441.5 L 429.0,441.5 L 430.0,441.5 L 431.0,441.5 L 432.0,441.5 L 433.0,441.5 L 434.0,441.5 L 435.0,441.5 L 436.0,441.5 L 437.0,441.5 L 438.0,441.5 L 439.0,441.5 L 440.0,441.5 L 441.0,441.5 L 442.0,441.5 L 443.0,441.5 L 444.0,441.5 L 445.0,441.5 L 446.0,441.5 L 446.5,442.0 L 447.0,442.5 L 448.0,442.5 L 449.0,442.5 L 450.0,442.5 L 451.0,442.5 L 452.0,442.5 L 453.0,442.5 L 454.0,442.5 L 455.0,442.5 L 456.0,442.5 L 457.0,442.5 L 458.0,442.5 L 459.0,442.5 L 460.0,442.5 L 461.0,442.5 L 462.0,442.5 L 463.0,442.5 L 464.0,442.5 L 465.0,442.5 L 466.0,442.5 L 467.0,442.5 L 468.0,442.5 L 469.0,442.5 L 470.0,442.5 L 471.0,442.5 L 472.0,442.5 L 473.0,442.5 L 474.0,442.5 L 475.0,442.5 L 476.0,442.5 L 477.0,442.5 L 478.0,442.5 L 479.0,442.5 L 480.0,442.5 L 481.0,442.5 L 482.0,442.5 L 483.0,442.5 L 484.0,442.5 L 484.5,443.0 L 485.0,443.5 L 485.5,443.0 Z" fill="rgb(62,137,130)" fill-rule="evenodd" stroke="none"></path></svg></svg><style>@media (prefers-color-scheme: light) { :root { filter: none; } }
@media (prefers-color-scheme: dark) { :root { filter: invert(100%); } }
</style></svg>